<?xml version="1.0" standalone="no"?>
<!DOCTYPE svg PUBLIC "-//W3C//DTD SVG 20010904//EN"
 "http://www.w3.org/TR/2001/REC-SVG-20010904/DTD/svg10.dtd">
<svg version="1.0" xmlns="http://www.w3.org/2000/svg"
 width="656.000000pt" height="656.000000pt" viewBox="0 0 656.000000 656.000000"
 preserveAspectRatio="xMidYMid meet">
<metadata>
Created by potrace 1.14, written by Peter Selinger 2001-2017
</metadata>
<g transform="translate(0.000000,656.000000) scale(0.100000,-0.100000)"
fill="#000000" stroke="none">
<path d="M4976 6448 c5 -7 -18 -12 -38 -9 -5 0 -8 -3 -8 -8 0 -5 -7 -12 -16
-15 -10 -4 -13 -2 -8 6 5 8 2 9 -12 3 -10 -4 -31 -8 -45 -9 -14 0 -26 -6 -26
-14 0 -7 7 -10 14 -8 8 4 11 1 8 -5 -4 -6 -13 -8 -19 -6 -7 3 -19 1 -27 -3 -8
-6 -16 -4 -21 3 -6 9 -8 9 -8 0 0 -7 -7 -13 -15 -13 -14 0 -20 -12 -16 -33 1
-5 -3 -6 -9 -2 -6 4 -17 1 -25 -5 -8 -6 -18 -10 -22 -7 -4 3 -14 -2 -22 -10
-12 -13 -11 -15 10 -9 14 3 10 -1 -9 -10 -22 -10 -32 -20 -28 -29 3 -8 2 -14
-2 -14 -19 3 -33 -2 -28 -10 6 -9 -22 -26 -37 -22 -5 1 -6 -3 -2 -9 11 -18 14
-51 4 -45 -5 4 -7 11 -4 16 4 5 1 9 -4 9 -14 0 -14 -6 1 -33 11 -21 10 -21 -7
-7 -10 8 -16 10 -12 4 3 -6 0 -22 -8 -37 -10 -19 -10 -27 -2 -32 7 -3 1 -3
-13 -1 -22 4 -23 4 -8 -8 14 -10 15 -15 5 -25 -9 -9 -9 -14 1 -20 11 -7 11 -9
-2 -14 -8 -3 -18 -1 -22 5 -4 6 -3 8 3 5 12 -7 10 29 -2 40 -4 5 -6 3 -2 -2 3
-6 2 -17 -3 -25 -4 -7 -4 -24 0 -36 6 -15 5 -26 -2 -30 -7 -5 -8 -2 -3 7 5 8
4 10 0 6 -14 -12 -15 -38 -2 -31 7 3 4 -1 -5 -8 -15 -13 -15 -15 0 -25 16 -11
16 -12 0 -12 -9 -1 -20 -6 -24 -12 -4 -8 1 -9 17 -4 l24 6 -24 -19 c-18 -14
-21 -21 -11 -27 9 -5 11 -4 6 3 -5 8 -1 10 9 5 12 -4 13 -8 5 -13 -7 -4 -10
-12 -6 -18 4 -6 -4 -9 -19 -8 -13 2 -22 -1 -19 -5 3 -5 12 -9 20 -9 8 0 14 -5
14 -11 0 -5 -6 -7 -12 -3 -9 5 -9 2 1 -9 16 -20 1 -23 -18 -4 -11 9 -11 8 0
-10 11 -18 11 -29 2 -54 -9 -23 -9 -28 0 -21 9 8 12 -3 12 -43 0 -32 -4 -51
-10 -48 -6 2 -11 -5 -11 -16 0 -11 3 -18 6 -16 3 2 11 -10 17 -26 10 -25 10
-29 -2 -19 -11 9 -12 7 -8 -9 3 -13 1 -21 -8 -21 -7 0 -9 -3 -6 -6 4 -4 14 -1
24 7 15 12 16 12 11 -2 -4 -9 -1 -22 5 -29 9 -10 6 -9 -13 0 -22 12 -23 11
-13 -2 10 -11 10 -17 0 -28 -9 -11 -7 -10 7 0 18 14 19 13 13 -3 -4 -10 -7
-20 -7 -23 0 -2 -8 0 -17 3 -16 6 -16 5 -4 -10 7 -9 9 -17 4 -17 -6 0 -15 10
-21 23 -8 17 -11 18 -11 5 -1 -10 -10 -22 -21 -28 -16 -9 -18 -8 -14 5 3 8 11
12 18 8 6 -4 5 0 -2 9 -14 17 -42 14 -42 -4 0 -5 5 -6 12 -2 7 4 8 3 4 -4 -10
-17 -15 -15 -26 11 -6 15 -9 17 -9 6 -1 -21 -32 -34 -42 -17 -4 6 -5 16 -3 20
3 4 0 8 -5 8 -6 0 -11 -4 -11 -9 0 -5 -11 -8 -25 -6 -19 2 -23 -1 -15 -10 7
-8 5 -12 -5 -12 -8 0 -15 6 -15 13 0 7 -5 16 -12 20 -7 5 -8 3 -3 -6 6 -10 4
-12 -9 -7 -14 6 -16 3 -11 -16 4 -13 3 -17 -2 -10 -9 12 -37 12 -49 0 -4 -4
-12 -7 -18 -7 -12 1 24 24 37 25 12 0 3 19 -11 21 -6 1 -10 -2 -6 -7 6 -11
-25 -7 -45 5 -10 6 -12 5 -7 -3 10 -15 -25 -11 -36 4 -4 6 -8 0 -8 -12 0 -13
-5 -23 -11 -23 -5 0 -8 4 -5 9 3 5 -1 12 -10 15 -12 5 -15 2 -10 -9 3 -9 2
-14 -3 -10 -5 3 -12 -1 -15 -7 -3 -7 -4 -3 -3 9 1 12 -2 22 -8 22 -5 0 -9 -6
-9 -14 1 -7 -4 -11 -12 -8 -7 3 -13 8 -12 11 2 19 -3 23 -16 13 -10 -9 -16 -9
-21 -1 -5 8 -11 8 -21 -1 -8 -6 -24 -9 -36 -6 -22 6 -22 5 -4 -8 18 -13 18
-14 -3 -12 -11 1 -21 7 -21 14 0 6 -5 15 -12 19 -7 5 -8 3 -3 -6 6 -10 4 -12
-9 -7 -14 6 -16 3 -11 -16 4 -13 3 -17 -2 -10 -9 12 -37 12 -49 0 -4 -4 -12
-7 -18 -7 -12 1 24 24 37 25 14 0 7 19 -8 21 -8 1 -13 -2 -10 -6 3 -5 -10 -7
-30 -6 -19 2 -32 0 -29 -5 3 -5 10 -7 15 -4 5 4 9 2 9 -4 0 -5 -9 -9 -20 -8
-11 1 -20 7 -20 14 0 6 -5 15 -12 19 -7 5 -8 3 -3 -6 6 -10 4 -12 -9 -7 -14 6
-16 3 -12 -16 3 -12 3 -16 0 -9 -3 6 -10 9 -16 6 -6 -4 -8 2 -4 17 3 13 3 18
0 12 -7 -16 -44 -17 -44 -1 0 6 -3 8 -7 5 -3 -4 4 -19 18 -34 l24 -28 -25 20
c-14 11 -27 22 -30 25 -8 8 -27 6 -37 -4 -4 -5 -3 -6 4 -2 6 3 14 2 17 -3 4
-5 0 -8 -6 -7 -21 3 -38 16 -38 29 0 7 4 6 10 -3 5 -8 10 -10 10 -4 0 5 -5 15
-12 22 -9 9 -9 12 0 12 7 0 12 5 12 11 0 5 -5 7 -12 3 -6 -4 -4 3 5 15 8 13
13 30 10 37 -3 8 0 14 7 14 6 0 9 -4 5 -9 -3 -5 0 -13 6 -17 7 -4 9 -3 5 4 -3
6 -2 13 4 17 6 4 7 11 4 17 -4 6 0 15 7 20 11 8 11 9 -2 5 -12 -4 -15 1 -15
18 1 13 6 28 10 32 5 4 6 2 2 -4 -5 -9 -2 -11 10 -6 14 5 14 7 -4 17 -16 9
-17 13 -7 23 10 9 15 9 24 0 9 -9 11 -8 6 6 -4 9 -11 17 -16 17 -5 0 -9 5 -9
10 0 7 8 6 23 -1 20 -11 21 -11 8 5 -13 15 -13 19 0 27 8 5 9 9 4 9 -6 0 -17
-6 -24 -12 -10 -11 -11 -10 -6 4 4 9 12 19 19 21 7 3 12 20 10 44 -1 21 -3 38
-4 38 -1 0 -3 8 -5 18 -2 9 1 15 6 11 5 -3 9 -1 9 5 0 5 -6 12 -12 14 -10 4
-10 6 0 6 8 1 10 6 5 14 -11 18 -13 38 -2 31 5 -3 9 0 9 5 0 6 -6 11 -12 11
-9 0 -8 4 2 10 11 7 11 10 2 10 -8 0 -10 5 -5 13 11 18 13 38 2 31 -5 -3 -9
-1 -9 5 0 5 6 12 13 14 9 4 9 6 0 6 -7 1 -10 8 -7 16 4 8 1 15 -6 15 -6 0 -8
-4 -5 -10 3 -5 1 -10 -4 -10 -15 0 -13 11 4 34 8 11 15 24 15 30 0 6 -7 0 -16
-12 -8 -12 -21 -22 -27 -22 -8 0 -7 4 2 9 13 8 13 12 0 28 -13 17 -13 17 4 4
15 -12 17 -12 11 3 -3 9 -11 16 -18 16 -7 0 -7 3 -1 8 6 4 11 13 13 20 2 10
-2 10 -20 1 l-23 -12 20 23 c11 13 14 20 8 16 -7 -4 -13 -2 -13 4 0 6 -10 15
-22 20 -20 8 -20 9 -4 9 18 1 18 2 3 19 -10 10 -14 23 -10 28 5 5 4 6 -1 2
-10 -9 -43 32 -38 47 2 6 -2 4 -9 -2 -18 -17 -32 -16 -26 1 4 11 1 13 -11 9
-15 -6 -16 -5 -2 12 8 10 9 16 3 11 -7 -4 -22 -2 -34 5 -16 8 -20 8 -14 -1 5
-8 0 -8 -15 2 -12 7 -31 18 -41 24 -10 6 -16 13 -14 16 3 3 -6 6 -19 6 -15 0
-23 -5 -19 -11 3 -6 1 -7 -6 -3 -7 5 -9 17 -5 29 6 22 6 22 -11 2 -16 -20 -16
-20 -11 4 4 18 2 21 -7 12 -15 -15 -57 -14 -57 2 0 8 -4 7 -10 -3 -8 -13 -10
-13 -10 0 0 11 -3 11 -12 2 -17 -17 -28 -15 -28 6 0 14 -2 15 -10 2 -13 -21
-53 -22 -45 -2 4 12 0 11 -16 -4 -12 -10 -19 -14 -16 -8 4 7 0 15 -9 18 -8 3
-13 2 -10 -3 3 -5 -1 -12 -10 -15 -9 -4 -13 -2 -8 5 4 8 -1 9 -17 4 -35 -12
-93 -13 -100 -3 -7 11 -41 -1 -34 -12 3 -5 0 -12 -6 -16 -8 -4 -9 -3 -5 4 4 7
2 12 -4 12 -6 0 -8 5 -4 12 4 7 3 8 -5 4 -6 -4 -9 -11 -6 -15 2 -5 -5 -17 -16
-27 -11 -10 -20 -14 -19 -9 4 20 0 35 -10 35 -5 0 -7 -7 -3 -16 5 -14 3 -15
-18 -4 -21 12 -22 11 -12 -1 10 -12 8 -15 -8 -16 -12 -1 -17 3 -13 9 4 7 2 8
-5 4 -6 -4 -9 -17 -6 -29 2 -12 2 -16 -1 -9 -3 6 -10 12 -15 12 -6 0 -8 -4 -5
-8 3 -5 -1 -9 -8 -9 -8 0 -12 7 -9 16 3 9 -2 5 -12 -8 -14 -18 -19 -20 -26
-10 -7 11 -9 10 -9 -4 0 -12 -4 -16 -12 -11 -10 6 -10 4 0 -8 10 -13 10 -17
-3 -22 -9 -3 -14 -2 -11 3 3 5 -5 8 -19 7 l-25 -1 21 -16 c14 -10 16 -16 8
-17 -28 -2 -49 -8 -56 -17 -4 -4 -2 -5 5 0 10 5 13 2 10 -11 -2 -13 -11 -19
-29 -18 -15 1 -26 -4 -26 -12 0 -10 4 -11 14 -3 17 15 17 5 0 -13 -24 -25 -66
-105 -59 -113 4 -5 1 -5 -5 -1 -7 4 -21 2 -30 -4 -15 -10 -16 -11 -1 -6 9 2
19 -2 22 -10 3 -8 2 -12 -3 -9 -5 3 -13 0 -18 -7 -11 -18 -13 -39 -3 -33 5 3
12 0 16 -6 4 -8 3 -9 -4 -5 -7 4 -13 1 -13 -8 -1 -9 -2 -21 -3 -27 0 -6 -9
-16 -19 -24 -17 -12 -17 -13 0 -20 17 -6 17 -7 -1 -21 -11 -8 -14 -14 -7 -14
7 0 9 -5 5 -12 -10 -15 -13 -49 -5 -43 3 2 6 -10 6 -25 1 -16 -3 -26 -7 -24
-5 3 -6 9 -3 14 3 4 -3 14 -13 21 -15 12 -16 12 -6 -1 5 -8 11 -31 13 -50 2
-19 7 -36 12 -38 5 -2 2 -10 -6 -19 -14 -14 -14 -17 2 -29 11 -8 13 -13 6 -14
-7 0 -13 -5 -13 -11 0 -5 6 -7 13 -3 6 4 4 -2 -7 -14 -17 -20 -18 -22 -2 -28
14 -5 15 -9 4 -15 -10 -7 -10 -9 2 -9 13 0 13 -1 0 -10 -13 -8 -12 -10 3 -10
17 0 17 -1 3 -16 -20 -20 -21 -30 -1 -14 13 11 14 10 8 -5 -5 -15 -3 -17 11
-12 10 4 15 3 11 -3 -3 -6 -16 -10 -28 -10 -17 0 -19 -2 -7 -9 8 -6 18 -7 23
-4 5 3 4 -4 -2 -15 -14 -27 -14 -39 1 -24 7 7 17 12 22 12 6 0 5 -4 -3 -9 -13
-8 -13 -12 0 -28 13 -16 12 -17 -3 -5 -12 10 -18 10 -24 1 -5 -8 -3 -9 5 -5 8
5 12 3 10 -5 -4 -31 1 -41 19 -35 14 5 14 4 -2 -9 -12 -9 -15 -15 -7 -15 11 0
11 -3 0 -17 -10 -11 -10 -14 -1 -9 7 4 12 1 12 -8 0 -9 -5 -16 -11 -16 -6 0
-10 -10 -9 -22 3 -37 1 -39 -21 -28 -20 11 -20 11 -5 -13 16 -23 13 -37 -8
-37 -6 0 -4 5 4 10 9 6 10 10 3 10 -21 0 -24 -18 -6 -36 16 -16 16 -17 1 -12
-18 7 -57 -16 -45 -28 4 -4 7 -2 7 4 0 7 7 12 17 12 13 0 12 -3 -5 -19 -24
-20 -30 -37 -9 -25 9 6 9 5 0 -8 -7 -8 -10 -17 -7 -21 3 -3 -3 -3 -15 0 -13 3
-21 1 -21 -6 0 -7 5 -9 12 -5 7 5 8 3 4 -5 -5 -7 -15 -10 -24 -6 -13 5 -13 3
2 -14 16 -18 16 -19 -1 -17 -12 0 -17 -5 -16 -17 0 -12 -4 -16 -12 -13 -9 3
-12 0 -8 -9 3 -8 10 -12 16 -8 6 3 7 1 3 -6 -4 -6 -12 -8 -18 -5 -6 4 -8 -2
-3 -17 5 -20 4 -21 -5 -9 -10 13 -11 12 -7 -6 3 -17 0 -20 -19 -18 -17 2 -22
-2 -19 -17 2 -10 -2 -19 -8 -19 -7 0 -6 -4 3 -10 13 -9 13 -10 0 -10 -13 0
-13 -1 0 -11 12 -8 10 -9 -7 -4 -17 5 -23 2 -23 -10 0 -9 5 -13 11 -10 6 4 5
-2 -2 -13 -12 -19 -14 -19 -26 -4 -7 9 -13 15 -13 12 -7 -31 -7 -39 1 -34 22
13 6 -9 -26 -38 -28 -24 -33 -33 -24 -44 9 -11 8 -14 -4 -14 -20 0 -41 -26
-27 -35 5 -3 10 -11 10 -17 0 -7 -5 -7 -14 1 -11 9 -15 8 -20 -4 -4 -11 -2
-14 6 -9 7 5 8 3 4 -5 -5 -7 -14 -10 -22 -7 -8 3 -13 0 -11 -7 1 -7 -7 -11
-18 -10 -11 1 -14 0 -7 -3 18 -8 15 -34 -5 -34 -16 0 -16 -2 -3 -11 12 -9 10
-10 -8 -6 -13 3 -21 3 -18 0 3 -4 -1 -14 -10 -24 -9 -11 -14 -25 -10 -35 6
-15 4 -15 -11 -3 -9 8 -14 9 -10 2 4 -6 1 -14 -5 -16 -10 -4 -10 -8 -2 -14 8
-5 4 -14 -14 -27 -14 -11 -22 -14 -18 -8 3 6 2 13 -4 17 -5 3 -10 1 -10 -5 0
-7 -7 -7 -23 1 l-22 12 20 -24 c13 -15 14 -19 3 -11 -9 7 -28 15 -42 18 -20 3
-24 1 -20 -11 5 -11 2 -13 -10 -9 -9 3 -13 11 -9 17 4 6 1 7 -6 3 -7 -5 -10
-14 -7 -22 5 -12 2 -12 -15 -3 -17 9 -23 8 -30 -2 -7 -12 -9 -11 -10 1 -1 8
-1 19 0 23 1 5 -3 6 -9 2 -6 -3 -8 -10 -5 -15 9 -15 -17 -23 -26 -9 -8 11 -12
10 -24 -5 -12 -15 -15 -16 -15 -5 0 23 -42 17 -51 -7 -6 -14 -8 -15 -9 -4 -2
8 -2 19 -1 24 1 5 -5 4 -14 -4 -11 -9 -12 -16 -5 -26 9 -10 7 -11 -9 -7 -14 3
-21 1 -21 -8 0 -11 -2 -11 -9 0 -8 13 -12 13 -27 0 -16 -12 -17 -12 -10 1 4 8
-2 4 -15 -10 l-22 -25 7 25 c3 14 3 19 0 12 -5 -10 -9 -10 -22 0 -10 8 -13 9
-9 1 4 -6 3 -14 -2 -18 -6 -3 -7 -13 -4 -23 6 -14 4 -15 -9 -4 -21 17 -44 -8
-25 -27 9 -10 8 -15 -7 -27 -14 -10 -16 -14 -5 -14 12 0 12 -2 -1 -10 -11 -7
-11 -10 -2 -10 7 0 11 -4 8 -9 -4 -5 0 -12 6 -14 7 -3 4 -6 -6 -6 -20 -1 -20
-1 0 -17 19 -15 19 -16 0 -9 -19 6 -19 5 -3 -13 22 -24 22 -38 0 -21 -10 8 -6
-2 9 -22 15 -20 24 -39 21 -43 -4 -3 1 -6 10 -6 9 0 17 -5 17 -11 0 -5 -5 -7
-12 -3 -7 4 -8 3 -4 -5 4 -6 15 -10 23 -9 10 2 17 -6 19 -19 2 -14 -1 -23 -9
-23 -8 0 -7 -4 3 -10 13 -8 11 -13 -9 -32 -13 -13 -21 -18 -17 -11 3 6 1 15
-5 19 -7 4 -9 3 -5 -4 3 -6 -3 -17 -14 -25 -11 -7 -17 -17 -13 -20 3 -4 1 -7
-4 -7 -6 0 -13 6 -16 13 -2 6 -4 0 -4 -15 0 -17 4 -25 10 -21 6 3 7 1 3 -6 -4
-6 -13 -8 -19 -4 -22 14 -39 12 -33 -4 4 -10 2 -13 -8 -10 -8 3 -13 -1 -12
-11 1 -11 -6 -16 -17 -15 -13 1 -17 -4 -12 -14 4 -12 2 -13 -7 -5 -10 7 -22 2
-48 -20 -19 -17 -30 -28 -23 -24 6 3 15 1 19 -5 4 -7 3 -9 -4 -5 -6 3 -13 2
-17 -4 -9 -15 -28 -12 -19 3 5 9 4 9 -7 -1 -11 -10 -11 -16 -1 -33 13 -20 12
-20 -15 -2 -19 12 -25 14 -18 4 6 -11 4 -13 -10 -7 -16 6 -16 4 -4 -10 13 -16
12 -16 -8 -6 -16 9 -24 9 -29 0 -4 -6 -3 -8 3 -5 6 4 13 0 16 -8 5 -11 1 -12
-19 -5 -33 13 -44 12 -20 -1 25 -15 0 -32 -26 -18 -14 8 -16 6 -11 -7 4 -11 3
-15 -5 -10 -6 3 -14 1 -18 -5 -4 -7 -3 -9 4 -5 6 3 14 1 18 -5 4 -7 3 -9 -4
-5 -6 3 -18 -2 -28 -11 -17 -17 -17 -17 -11 -1 3 10 2 20 -4 23 -5 4 -8 1 -7
-6 2 -7 -2 -13 -9 -14 -6 0 -15 -4 -20 -9 -4 -5 -3 -6 3 -3 7 4 14 1 17 -7 3
-8 -1 -13 -11 -13 -47 0 -57 -3 -42 -12 8 -6 18 -7 24 -4 5 3 6 1 3 -5 -4 -5
-17 -8 -29 -4 -16 4 -20 2 -16 -10 4 -8 1 -15 -7 -15 -7 0 -11 7 -8 16 3 11
-1 9 -11 -4 -8 -11 -20 -25 -25 -31 -5 -6 -24 -10 -43 -8 -23 3 -29 1 -18 -5
8 -6 19 -7 25 -4 6 4 6 1 -1 -6 -6 -7 -20 -13 -32 -14 -11 0 -18 -5 -15 -10 3
-5 -5 -6 -18 -2 -21 7 -22 6 -11 -8 10 -12 10 -17 1 -23 -7 -4 -9 -3 -6 3 4 6
0 13 -7 16 -10 4 -14 0 -11 -12 5 -26 -10 -48 -18 -26 -5 10 -3 14 5 9 7 -5 8
-3 4 5 -6 9 -12 9 -25 -3 -10 -9 -21 -13 -26 -9 -4 5 -5 2 -1 -5 6 -11 11 -11
23 0 15 12 15 11 2 -9 -7 -12 -16 -19 -19 -15 -11 15 -32 13 -27 -2 7 -19 -8
-31 -44 -35 -5 0 -8 -5 -5 -9 2 -4 1 -14 -3 -21 -6 -10 -10 -9 -14 4 -5 10 -3
14 5 9 7 -4 8 -3 4 5 -9 14 -26 5 -26 -15 0 -9 -5 -12 -11 -8 -6 3 -21 -5 -34
-20 -12 -14 -26 -22 -30 -18 -5 4 -5 -1 -2 -10 7 -20 -8 -34 -19 -17 -5 8 -3
9 7 4 8 -5 10 -4 6 0 -4 5 -14 10 -22 11 -12 2 -13 -2 -3 -19 10 -20 10 -21
-6 -8 -15 12 -16 12 -10 -5 4 -10 4 -16 -1 -12 -4 4 -14 3 -22 -4 -11 -9 -12
-7 -7 8 5 18 5 18 -6 1 -6 -9 -8 -23 -4 -30 6 -8 3 -8 -9 1 -14 12 -16 11 -12
-5 2 -12 -2 -20 -10 -20 -8 0 -11 5 -8 11 4 6 -1 5 -10 -3 -9 -7 -17 -21 -17
-30 0 -12 -2 -13 -9 -3 -6 10 -11 9 -22 -4 -8 -10 -9 -15 -2 -11 6 4 15 3 18
-3 4 -6 1 -9 -7 -8 -7 2 -12 -2 -11 -9 2 -7 -4 -10 -11 -7 -8 3 -12 13 -9 22
4 14 3 15 -5 2 -7 -9 -7 -18 -1 -26 10 -12 -15 -29 -38 -25 -14 2 -18 -15 -6
-22 5 -2 2 -2 -5 -1 -7 2 -12 -4 -10 -14 2 -11 -3 -16 -14 -14 -9 1 -20 -3
-24 -9 -4 -8 -3 -9 4 -5 7 4 12 2 12 -3 0 -6 -5 -11 -11 -11 -5 0 -7 -6 -3
-12 4 -7 -3 -4 -17 7 -13 11 -18 13 -11 5 16 -18 16 -44 -1 -34 -7 5 -6 0 3
-11 9 -11 10 -16 3 -11 -9 5 -13 1 -13 -13 0 -10 6 -22 13 -24 7 -4 6 -6 -5
-6 -9 -1 -18 4 -20 11 -3 9 -6 9 -12 0 -4 -7 -2 -12 4 -12 6 0 8 -5 3 -12 -13
-23 -12 -37 4 -31 13 5 12 1 -3 -23 l-18 -29 21 18 c16 14 23 15 29 6 4 -8 3
-10 -4 -5 -8 5 -12 -2 -12 -19 0 -14 4 -24 8 -21 5 3 7 -14 6 -37 -1 -23 -3
-42 -4 -42 -1 0 -3 -8 -5 -17 -2 -9 4 -23 13 -30 10 -8 13 -9 9 -1 -4 6 -3 14
2 17 11 7 9 -13 -3 -33 -7 -10 -6 -12 4 -6 10 6 12 1 8 -19 -3 -14 -1 -29 4
-32 4 -3 5 -10 2 -16 -4 -7 -2 -8 4 -4 7 4 12 2 12 -4 0 -6 5 -8 12 -4 7 4 8
3 4 -5 -4 -6 -11 -9 -16 -6 -5 3 -12 0 -16 -6 -4 -8 -3 -9 4 -5 7 4 12 2 12
-4 0 -6 5 -8 13 -4 8 5 8 2 -2 -9 -15 -19 -1 -23 17 -5 7 7 12 9 12 6 0 -4 -7
-14 -16 -22 -14 -15 -14 -16 3 -16 15 0 16 -2 3 -10 -11 -7 -11 -10 -2 -10 10
0 10 -5 1 -22 -9 -19 -9 -21 2 -11 19 19 34 16 18 -4 -10 -11 -10 -14 -1 -9 7
4 12 2 12 -4 0 -6 5 -8 12 -4 7 4 8 3 4 -5 -4 -6 -13 -8 -19 -4 -7 4 -7 0 1
-10 8 -9 10 -22 6 -28 -4 -8 -3 -9 4 -5 16 10 15 -16 0 -34 -7 -8 -4 -7 8 3
20 17 22 17 35 0 9 -11 10 -14 2 -9 -7 4 -13 2 -13 -3 0 -6 5 -11 12 -11 9 0
9 -3 0 -12 -16 -16 -15 -31 1 -21 18 11 38 13 31 2 -3 -5 -10 -7 -15 -4 -5 4
-9 1 -9 -4 0 -6 5 -11 10 -11 6 0 10 -5 10 -11 0 -5 -4 -7 -10 -4 -5 3 -10 1
-10 -5 0 -7 7 -10 15 -7 19 8 31 -13 14 -24 -11 -7 -11 -9 -1 -9 7 0 11 -4 7
-9 -3 -5 0 -13 6 -17 8 -4 9 -3 5 4 -4 7 -1 12 6 12 8 0 15 -9 16 -20 1 -11 3
-29 4 -39 2 -15 5 -17 15 -9 10 8 13 6 13 -5 0 -8 -3 -17 -7 -20 -5 -2 -2 -2
6 0 9 2 11 -2 7 -13 -5 -14 -4 -15 8 -5 12 10 13 9 9 -8 -5 -20 8 -27 39 -22
4 0 5 -6 1 -15 -5 -13 -7 -13 -14 -2 -6 9 -9 9 -9 1 0 -6 5 -15 11 -19 8 -4 7
-9 -2 -15 -10 -6 -5 -8 13 -5 15 3 31 0 34 -6 4 -7 2 -8 -4 -4 -7 4 -12 3 -12
-3 0 -5 5 -11 10 -13 6 -2 12 -13 13 -25 0 -12 5 -19 9 -17 4 3 8 0 8 -5 0 -6
5 -11 11 -11 5 0 7 4 4 10 -3 6 1 7 10 3 13 -4 14 -8 4 -14 -7 -4 -14 -14 -15
-23 -2 -13 2 -14 18 -5 11 6 22 8 26 5 3 -3 0 -6 -7 -6 -9 0 -9 -5 -1 -20 6
-11 15 -18 19 -15 11 6 22 -21 15 -38 -3 -8 2 -14 10 -14 8 0 13 4 10 9 -3 4
0 8 5 8 9 0 16 -27 13 -51 -1 -4 12 -6 28 -5 24 2 27 -1 20 -15 -10 -17 -4
-29 14 -29 6 0 4 5 -4 10 -13 8 -12 10 3 10 9 0 17 -7 17 -16 0 -9 5 -12 13
-8 7 5 6 0 -3 -11 -9 -11 -10 -16 -3 -11 8 4 13 2 13 -5 0 -8 5 -8 18 2 9 7
14 9 10 5 -8 -10 31 -43 45 -38 5 1 5 -2 2 -8 -5 -8 -13 -6 -26 6 -11 9 -22
14 -26 11 -3 -4 -1 -7 6 -7 7 0 9 -5 5 -12 -4 -7 -3 -8 5 -4 6 4 14 0 17 -9 5
-13 9 -13 22 -3 14 12 14 10 2 -12 -12 -23 -12 -24 3 -11 11 9 17 10 17 2 0
-6 7 -11 15 -11 8 0 15 -4 15 -10 0 -5 7 -10 15 -10 8 0 15 -5 15 -11 0 -6 9
-9 20 -6 11 3 25 -2 32 -11 10 -12 10 -14 1 -8 -9 5 -11 2 -7 -9 5 -13 9 -13
22 -3 13 11 15 10 9 -5 -6 -15 -4 -16 13 -7 13 7 21 7 26 -2 4 -7 3 -8 -4 -4
-7 4 -12 2 -12 -5 0 -6 8 -9 20 -6 10 3 19 2 18 -2 -2 -21 4 -30 18 -24 10 4
20 -1 26 -11 7 -12 13 -14 28 -6 16 8 18 8 14 -5 -7 -18 7 -20 25 -3 11 11 12
8 6 -12 -3 -14 -3 -20 2 -15 14 17 35 16 48 -2 7 -10 11 -22 8 -27 -4 -5 -1
-6 6 -2 6 4 9 12 6 17 -4 5 -1 9 4 9 6 0 11 -4 11 -9 0 -5 13 -11 29 -14 16
-3 36 -13 44 -22 11 -10 18 -12 22 -4 5 7 16 3 31 -12 13 -12 24 -19 24 -15 0
4 9 2 19 -4 16 -8 20 -6 24 8 3 11 5 9 6 -8 1 -20 3 -22 11 -10 9 13 10 13 11
0 0 -10 3 -8 9 5 7 17 9 17 9 3 1 -21 12 -23 30 -6 11 11 12 10 6 -1 -6 -11
-4 -13 8 -8 8 3 25 -3 38 -14 22 -19 35 -24 54 -19 27 8 75 6 75 -3 0 -5 7 -4
15 3 18 15 20 0 3 -20 -11 -12 -10 -12 4 -2 13 10 17 10 22 0 3 -7 4 -3 2 10
-4 19 -2 21 10 11 7 -6 11 -16 7 -23 -3 -6 3 -3 14 7 11 9 23 14 26 10 4 -3 7
0 7 8 1 10 6 8 18 -6 9 -12 26 -24 37 -29 17 -6 16 -3 -5 20 l-25 27 27 -19
c15 -10 28 -23 28 -27 0 -5 5 -5 10 -2 6 3 10 1 10 -6 0 -7 3 -9 6 -6 4 4 1
13 -6 22 -11 13 -10 14 4 9 9 -3 16 -10 16 -14 0 -5 10 -6 22 -2 16 4 19 2 13
-9 -7 -11 -6 -12 6 -3 8 6 22 10 32 9 9 -2 15 1 12 5 -3 5 -14 7 -25 5 -11 -2
-22 0 -25 4 -9 16 59 3 71 -13 11 -15 12 -15 18 0 9 23 7 31 -4 14 -6 -9 -10
-10 -10 -3 0 6 5 15 10 18 6 4 7 11 4 17 -4 7 -2 8 5 4 6 -4 9 -11 7 -15 -3
-4 -1 -13 5 -21 6 -10 9 -11 9 -2 0 6 7 12 16 12 14 0 15 -2 3 -17 -12 -13 -9
-13 16 3 17 10 32 21 35 24 7 8 22 6 37 -3 13 -8 53 12 53 27 0 4 -6 3 -13 -3
-8 -6 -18 -7 -22 -3 -5 4 -5 1 -1 -5 4 -7 2 -13 -4 -13 -7 0 -10 6 -8 13 3 6
9 12 14 12 5 0 15 4 22 8 6 5 12 6 12 2 0 -3 10 -1 21 6 15 8 19 8 15 0 -9
-14 0 -14 25 -1 13 8 19 7 19 0 0 -7 6 -8 19 0 29 15 49 2 73 -44 11 -22 15
-36 10 -31 -6 6 -17 23 -25 38 -13 26 -15 26 -20 7 -3 -11 -1 -18 4 -14 5 3
14 -8 21 -23 7 -15 17 -31 23 -35 6 -5 5 -8 -3 -8 -7 0 -12 -6 -11 -12 3 -24
-1 -38 -11 -38 -5 0 -7 8 -3 18 7 18 5 17 -17 -12 -8 -11 -10 -17 -3 -13 6 4
14 3 18 -3 10 -17 15 -51 6 -45 -5 2 -15 -3 -22 -12 -10 -12 -10 -14 -1 -9 6
4 12 3 12 -3 0 -5 -6 -12 -12 -14 -10 -4 -9 -8 2 -16 10 -7 11 -11 3 -11 -7 0
-13 -9 -13 -21 0 -13 4 -18 12 -13 7 4 8 3 4 -5 -6 -9 -11 -9 -21 -1 -10 8
-15 8 -21 -1 -4 -8 -3 -9 4 -5 7 4 12 1 12 -9 0 -8 -7 -18 -15 -21 -14 -6 -13
-8 1 -19 14 -9 14 -14 4 -20 -9 -6 -11 -4 -5 5 5 8 4 11 -2 7 -6 -4 -10 -20
-9 -36 1 -17 0 -28 -4 -26 -3 2 -14 -3 -25 -11 -10 -8 -13 -14 -7 -14 9 0 10
-5 3 -18 -7 -13 -6 -23 2 -32 10 -10 8 -12 -8 -6 -11 4 -16 4 -13 0 4 -4 1
-16 -7 -27 -10 -14 -11 -25 -4 -38 7 -14 6 -17 -4 -14 -8 4 -13 -3 -14 -15 -1
-11 3 -20 9 -20 6 0 8 -3 5 -6 -4 -4 -14 -1 -22 6 -13 11 -16 11 -13 -1 2 -8
8 -18 13 -22 6 -5 1 -7 -12 -4 -22 5 -22 4 -5 -22 16 -25 16 -26 -2 -11 -18
14 -19 14 -7 -7 10 -19 9 -23 -4 -23 -8 0 -14 -5 -12 -12 1 -7 -3 -12 -10 -13
-6 0 -15 -4 -20 -9 -5 -5 -3 -6 5 -2 7 4 12 1 12 -8 0 -9 -6 -16 -12 -16 -9 0
-8 -4 2 -10 14 -9 7 -14 -15 -11 -5 1 -1 -6 10 -15 17 -15 18 -16 2 -10 -15 5
-17 2 -12 -13 6 -20 -18 -36 -38 -25 -7 3 -4 -1 5 -9 22 -18 23 -31 2 -23 -8
3 -13 2 -9 -3 3 -5 -1 -12 -7 -15 -8 -3 -7 -5 2 -3 9 1 17 -2 18 -8 1 -5 -4
-10 -10 -10 -8 0 -13 -14 -13 -37 0 -20 -3 -34 -7 -32 -4 2 -10 0 -13 -6 -4
-6 -3 -10 2 -9 22 4 34 -2 27 -13 -5 -9 -2 -9 9 1 13 10 17 10 17 1 0 -10 4
-9 18 1 9 7 14 10 10 5 -10 -11 17 -49 37 -52 8 -1 13 2 9 7 -3 5 -10 6 -16 3
-7 -4 -8 -2 -4 4 4 6 14 8 23 5 12 -5 14 -3 8 7 -5 9 -4 11 4 6 6 -4 9 -11 6
-16 -3 -5 -1 -11 5 -15 5 -3 10 2 10 12 0 15 2 15 9 3 6 -8 7 -19 3 -25 -3 -5
1 -5 9 2 8 6 27 10 42 9 28 -3 37 8 15 17 -9 4 -10 6 -1 6 6 1 18 -6 26 -14
12 -11 17 -12 20 -2 4 9 6 9 6 0 1 -7 6 -13 12 -13 5 0 7 6 3 13 -6 9 -4 9 8
-1 13 -10 17 -10 21 0 4 10 8 10 16 -2 10 -13 11 -13 11 0 0 13 1 13 10 0 9
-13 11 -13 20 0 8 13 11 13 19 1 5 -8 14 -10 21 -6 19 12 100 13 100 2 0 -5 6
-4 14 2 11 9 16 9 22 0 4 -8 3 -9 -4 -5 -8 5 -10 1 -5 -9 5 -13 7 -14 14 -3 7
11 11 10 20 -2 9 -13 10 -13 6 2 -8 23 3 30 19 13 14 -13 48 -10 40 4 -6 8 61
7 70 -2 4 -4 14 -1 22 6 9 6 13 7 9 1 -8 -14 53 -17 70 -3 9 8 11 6 8 -10 -2
-11 1 -23 6 -27 5 -3 9 -2 8 3 -4 23 2 32 18 26 11 -4 14 -3 9 6 -6 9 -3 9 13
-1 12 -7 19 -19 16 -27 -4 -11 -2 -11 8 -3 10 9 19 7 38 -5 13 -9 21 -13 17
-8 -4 4 -2 15 5 23 10 13 9 14 -3 7 -13 -8 -13 -7 -1 8 16 20 22 22 18 5 -3
-14 55 -17 65 -3 5 6 8 6 8 -2 0 -6 9 -10 20 -8 11 2 18 0 15 -4 -7 -13 19
-21 46 -14 17 5 20 3 14 -8 -6 -11 -5 -11 5 -2 9 8 19 9 31 2 15 -8 17 -6 12
8 -6 17 -5 17 15 0 12 -11 26 -16 33 -11 19 11 79 13 79 3 0 -6 5 -7 11 -4 22
14 69 16 69 3 0 -9 3 -9 8 -2 14 20 41 24 51 6 8 -14 10 -14 11 -2 0 13 1 13
10 0 8 -13 11 -13 22 -1 11 11 11 13 -1 6 -10 -6 -12 -4 -6 5 6 10 11 10 20
-3 13 -19 30 -24 19 -6 -4 7 1 7 16 -1 15 -8 20 -8 16 -1 -4 6 -2 11 3 11 6 0
11 -6 11 -12 0 -10 3 -9 9 1 7 11 9 11 13 0 4 -12 7 -12 21 0 14 11 17 11 17
0 0 -11 2 -11 10 1 8 13 10 12 10 -3 0 -10 5 -15 10 -12 6 4 8 10 6 14 -3 4 1
8 9 8 8 0 12 -4 9 -9 -8 -13 41 -9 54 4 9 9 12 8 12 -4 0 -9 4 -19 9 -22 5 -3
8 2 7 11 0 9 6 18 14 20 13 4 13 3 0 -7 -12 -9 -9 -10 13 -5 20 4 27 2 22 -6
-6 -8 -2 -8 13 0 17 9 23 8 31 -6 7 -12 10 -13 11 -4 0 8 6 11 16 7 13 -5 14
-4 6 7 -9 10 -8 14 3 14 14 0 19 -11 16 -30 -1 -5 3 -5 9 -2 6 4 9 13 7 19 -3
7 1 13 9 13 7 0 11 -3 9 -7 -2 -4 9 -7 25 -8 16 0 32 4 36 9 3 5 10 7 15 3 5
-3 7 -10 3 -15 -3 -5 -10 -7 -15 -4 -5 3 -6 -1 -3 -9 3 -9 10 -16 16 -16 5 0
7 3 4 8 -2 4 3 16 11 27 13 16 15 17 10 3 -4 -12 -1 -18 8 -18 8 0 14 3 12 8
-1 4 2 8 7 10 6 1 11 -5 12 -14 1 -9 6 -19 10 -22 4 -4 4 1 1 11 -5 13 -3 17
5 14 7 -2 12 -11 10 -18 -3 -10 1 -10 15 2 33 28 70 21 64 -13 -2 -13 6 -9 20
9 10 11 10 14 2 9 -7 -4 -13 -2 -13 3 0 6 9 11 21 11 13 0 18 -4 13 -12 -4 -7
-3 -8 4 -4 7 4 12 2 12 -4 0 -7 6 -10 14 -7 7 3 18 1 24 -5 16 -16 26 10 10
30 -12 15 -11 16 4 4 13 -10 17 -10 22 0 3 7 4 3 2 -9 -4 -25 9 -40 19 -23 5
8 11 8 20 0 10 -8 15 -8 20 0 5 8 11 7 23 -2 9 -8 13 -8 9 -2 -4 7 0 14 8 18
8 3 17 0 21 -6 5 -7 2 -8 -6 -3 -9 5 -11 4 -6 -4 5 -8 16 -5 39 11 l32 22 -20
-24 c-21 -25 -5 -20 28 9 10 8 17 11 15 6 -2 -6 2 -10 7 -10 5 0 9 3 8 7 -2 4
5 4 14 1 11 -4 13 -8 5 -11 -7 -2 -12 -8 -12 -13 0 -5 12 -4 27 2 19 7 28 6
33 -2 6 -8 9 -8 14 0 4 6 12 11 17 11 6 0 7 -5 3 -11 -5 -8 -1 -8 14 0 26 14
35 14 26 0 -4 -8 0 -8 15 0 15 8 21 9 21 1 0 -6 5 -8 10 -5 6 4 8 12 4 18 -3
7 2 3 10 -7 12 -15 16 -16 16 -5 0 12 2 12 10 -1 9 -13 10 -13 10 0 0 13 1 13
10 0 9 -13 10 -13 10 0 0 9 3 11 8 5 9 -13 35 -18 27 -5 -3 5 -1 10 4 10 6 0
11 -6 11 -12 0 -9 4 -8 10 2 9 13 10 13 10 0 0 -13 1 -13 10 0 9 13 10 13 10
0 0 -9 3 -11 8 -5 4 6 13 11 21 13 12 3 12 0 2 -12 -10 -12 -9 -14 8 -9 12 3
19 9 16 12 -2 4 2 8 10 8 8 0 12 -4 10 -8 -3 -4 2 -9 10 -12 9 -4 12 -1 9 7
-3 7 2 13 10 13 8 0 13 -4 10 -9 -7 -11 19 -10 51 2 23 9 26 8 22 -4 -4 -9 -1
-13 6 -11 29 11 187 10 187 0 0 -7 7 -12 15 -12 11 0 12 4 3 14 -6 7 -8 16 -4
20 3 3 6 1 6 -6 0 -7 5 -9 10 -6 6 3 10 -1 10 -9 0 -9 3 -15 8 -14 4 1 18 -3
32 -10 22 -12 23 -11 8 1 -10 8 -14 17 -10 21 4 4 1 6 -7 4 -7 -2 -16 4 -18
12 -3 10 -2 11 4 4 4 -6 16 -10 25 -9 9 2 27 -5 39 -16 30 -26 34 -24 14 7
-11 17 -12 24 -4 18 8 -5 20 -9 27 -10 8 -2 17 -6 20 -10 4 -4 -1 -4 -10 -1
-25 9 -22 0 3 -14 15 -8 19 -8 15 0 -4 6 -2 11 4 11 6 0 8 5 4 11 -5 8 -1 8
13 0 11 -6 23 -7 27 -4 3 3 6 1 6 -6 0 -7 6 -11 14 -8 7 3 19 0 26 -6 10 -9
11 -9 6 1 -4 6 -3 12 3 12 5 0 12 -6 14 -12 4 -8 6 -7 6 4 1 9 -4 19 -9 21 -6
3 -5 4 2 3 7 -1 15 -13 19 -27 l7 -24 2 25 c1 25 1 25 10 3 5 -13 11 -23 14
-23 2 0 2 10 -1 23 -6 22 -6 21 16 -3 12 -14 20 -20 17 -14 -3 7 3 14 14 17
11 3 18 2 15 -2 -4 -8 120 -5 142 3 7 3 15 1 18 -4 5 -8 43 -5 72 5 7 2 10 -2
6 -12 -5 -13 -3 -13 15 -4 27 14 35 14 26 -1 -5 -7 -3 -8 7 -2 21 13 39 14 39
1 0 -7 5 -5 10 3 9 13 10 13 10 0 0 -13 1 -13 10 0 6 10 10 11 10 3 0 -7 5
-13 11 -13 5 0 8 4 5 9 -7 10 13 9 30 -2 6 -3 14 -4 18 0 10 10 86 9 86 -1 0
-4 6 -3 14 3 12 10 16 8 21 -10 l7 -22 13 23 c8 15 14 19 17 10 3 -9 9 -11 19
-5 18 12 40 16 35 6 -3 -4 4 -13 15 -19 18 -12 19 -11 10 6 -7 14 -7 19 4 19
8 0 12 -4 8 -9 -3 -6 14 -8 40 -7 27 2 52 -2 61 -10 14 -12 16 -11 10 4 -6 14
-4 16 6 10 10 -6 12 -4 7 8 -6 16 -4 16 21 3 l27 -14 0 668 c0 665 0 668 -20
658 -20 -11 -20 -11 -1 11 11 12 21 29 22 39 3 19 -15 44 -26 37 -5 -3 -12 0
-16 6 -4 8 -3 9 4 5 7 -4 12 -3 12 3 0 5 -5 13 -10 16 -8 5 -8 11 -1 19 6 7 8
16 4 19 -3 4 -4 7 0 7 3 0 13 -7 21 -16 27 -27 17 0 -11 31 -18 18 -21 26 -10
22 9 -3 19 -2 22 3 4 6 -1 10 -9 10 -12 0 -14 5 -6 26 13 34 13 41 -2 21 -12
-16 -13 -15 -13 7 0 13 3 22 8 19 4 -2 7 3 7 12 0 10 -5 13 -12 9 -9 -5 -9 -3
1 9 7 9 18 14 24 10 6 -3 7 -1 3 5 -4 6 -12 10 -19 8 -7 -1 -9 -1 -4 1 4 3 7
11 7 19 0 9 -3 13 -7 11 -5 -3 -8 6 -8 19 0 13 3 24 8 24 4 0 7 -5 7 -12 0 -6
3 -8 7 -5 3 4 -2 16 -11 26 -14 15 -15 24 -6 40 8 16 8 21 -2 21 -9 0 -9 3 2
10 8 5 10 10 4 10 -6 0 -10 10 -8 23 1 12 3 22 4 22 1 0 3 14 4 32 1 18 -1 30
-6 27 -4 -3 -8 0 -8 5 0 6 6 11 13 11 6 1 1 7 -12 14 -20 11 -21 14 -7 19 12
5 15 3 10 -6 -5 -9 -4 -9 6 0 10 9 10 15 -4 28 -19 19 -21 29 -3 19 6 -4 9 -4
5 1 -4 4 -3 14 3 22 9 10 8 13 -5 13 -10 0 -14 -4 -11 -10 3 -6 2 -10 -3 -10
-6 0 -9 11 -8 24 1 17 4 21 13 15 7 -7 14 -6 19 2 4 8 3 9 -4 5 -13 -8 -12 20
0 39 4 6 -3 12 -15 12 -17 2 -19 0 -7 -7 8 -5 10 -10 4 -10 -6 0 -17 7 -24 16
-11 12 -11 15 1 12 10 -2 13 5 10 27 -2 17 -7 33 -13 36 -5 3 -2 9 7 12 10 5
14 3 9 -5 -4 -7 -3 -8 4 -4 17 10 15 15 -10 27 -22 9 -21 9 5 6 33 -5 35 1 5
12 -19 7 -22 16 -23 64 -1 35 3 57 9 57 6 0 4 5 -4 10 -13 9 -13 10 0 10 13 0
13 1 0 10 -8 5 -11 10 -6 10 5 0 3 7 -4 15 -11 13 -10 14 6 9 16 -6 17 -5 7 7
-15 16 -17 33 -3 24 6 -3 7 1 4 9 -3 9 -10 16 -16 16 -5 0 -6 -5 -3 -10 3 -5
2 -10 -4 -10 -5 0 -9 9 -8 19 0 11 5 17 9 15 4 -3 8 0 8 5 0 6 -4 11 -10 11
-16 0 -12 28 6 38 15 8 15 10 0 15 -9 4 -16 11 -16 17 0 6 4 9 9 5 5 -3 12 -1
16 4 3 6 -3 8 -15 6 -23 -4 -36 10 -19 21 8 5 9 3 4 -6 -5 -8 -4 -11 3 -6 14
9 3 38 -12 30 -6 -3 -2 2 8 10 20 16 20 16 0 16 -16 0 -17 2 -4 10 13 9 13 10
0 11 -10 0 -8 3 5 9 18 8 18 9 -5 10 -14 1 -19 4 -12 7 10 4 9 11 -4 31 -9 15
-11 21 -3 15 22 -22 29 -14 13 15 -12 24 -12 27 1 30 22 5 18 21 -4 17 -14 -2
-18 1 -14 11 3 7 10 11 17 7 7 -4 7 -1 -1 9 -7 8 -9 19 -5 23 4 5 1 5 -7 0
-11 -6 -13 -3 -9 13 4 14 2 19 -6 16 -7 -3 -13 2 -13 10 0 8 4 13 9 10 4 -3 8
2 8 10 0 9 -6 16 -12 16 -9 0 -8 4 2 10 11 7 11 10 2 10 -8 0 -10 5 -5 13 11
17 13 38 3 32 -5 -3 -11 -1 -15 5 -3 5 2 10 11 10 16 0 16 1 -2 16 -10 8 -12
12 -4 8 13 -7 13 -5 1 9 -11 14 -11 17 0 17 8 1 1 7 -16 15 -16 7 -24 14 -17
14 15 1 16 61 1 61 -8 0 -8 5 1 15 10 12 10 15 -1 15 -12 0 -12 2 0 9 10 7 11
9 0 13 -15 5 -20 47 -5 44 6 -2 8 -1 3 1 -4 3 -5 9 -2 14 4 5 -2 6 -12 2 -10
-3 -15 -2 -10 2 4 5 0 19 -9 33 -9 13 -11 21 -5 18 7 -5 11 1 11 14 0 12 -4
19 -8 16 -4 -2 -8 6 -8 20 0 13 5 24 11 24 5 0 3 5 -5 10 -13 9 -13 11 0 20
12 8 11 10 -7 10 -13 0 -23 5 -23 11 0 6 7 9 15 6 8 -4 17 -1 21 5 5 7 3 8 -5
4 -8 -6 -11 -2 -9 10 2 13 -3 19 -14 18 -11 -1 -14 4 -11 14 4 9 2 13 -4 9
-11 -7 -9 34 3 54 4 8 3 9 -4 5 -7 -4 -12 -3 -12 3 0 5 6 12 13 14 7 3 5 6 -5
6 -22 1 -24 29 -3 37 14 6 13 8 -2 19 -10 7 -21 11 -25 9 -4 -2 -10 1 -14 7
-4 8 -3 9 4 5 7 -4 12 -1 12 9 0 10 -5 13 -12 9 -9 -5 -9 -2 1 9 12 15 11 17
-5 18 -18 0 -18 1 1 9 17 7 17 9 3 9 -10 1 -18 6 -18 12 0 5 4 8 9 4 5 -3 13
0 17 6 4 7 3 9 -4 5 -6 -3 -13 -2 -17 4 -4 6 -10 8 -15 5 -4 -3 -7 3 -6 13 0
10 -5 16 -13 14 -12 -3 -12 0 -2 12 9 11 10 20 1 35 -8 16 -8 19 3 16 8 -4 13
3 14 17 2 18 0 20 -7 8 -8 -13 -10 -12 -10 3 0 10 -4 16 -9 13 -5 -3 -8 7 -7
23 1 18 -2 27 -9 24 -7 -2 -12 3 -12 12 0 8 4 15 9 15 4 0 8 5 8 11 0 5 -5 7
-12 3 -8 -5 -9 -2 -5 9 4 10 1 17 -6 17 -8 0 -6 4 3 10 13 8 12 10 -4 10 -14
0 -17 5 -13 21 4 16 3 18 -9 8 -19 -15 -18 1 1 29 15 20 15 21 -1 15 -13 -5
-16 -3 -11 10 6 17 -2 21 -33 17 -11 -1 -10 2 4 13 16 12 17 17 6 38 -8 13
-13 26 -12 29 0 3 -7 3 -16 2 -14 -3 -15 -1 -4 9 6 7 12 18 12 23 0 7 -3 7 -8
0 -5 -9 -11 -8 -20 2 -7 8 -9 14 -3 14 5 0 12 7 15 16 5 14 4 15 -8 5 -12 -10
-14 -7 -12 19 1 16 -1 30 -6 30 -4 0 -8 -4 -8 -10 0 -5 -4 -10 -9 -10 -5 0 -7
9 -4 20 3 12 0 20 -7 20 -9 0 -9 4 1 17 12 14 12 16 0 8 -11 -6 -13 -3 -9 13
4 12 2 22 -3 22 -5 0 -9 -4 -9 -10 0 -5 -3 -10 -8 -10 -4 0 -7 23 -7 52 0 34
-4 52 -13 54 -7 1 -8 0 -2 -3 5 -2 10 -10 10 -16 0 -15 -46 30 -48 48 -1 8 -3
22 -4 30 -1 8 -5 15 -10 15 -4 0 -8 4 -8 10 0 5 8 7 18 4 14 -5 14 -4 2 4 -10
8 -18 8 -27 0 -10 -8 -12 -7 -8 5 4 8 2 18 -3 21 -11 7 -5 44 12 65 8 11 8 13
-1 8 -6 -4 -18 -1 -26 7 -8 8 -18 12 -23 8 -5 -4 -3 0 4 9 10 14 9 17 -7 22
-10 2 -24 15 -31 27 -7 12 -8 20 -2 16 6 -3 9 4 8 18 0 13 -3 23 -6 21 -3 -1
-16 9 -30 23 -14 13 -19 22 -12 18 7 -5 12 -1 12 9 0 9 -4 14 -8 11 -5 -3 -9
1 -9 9 0 8 4 12 9 9 5 -4 4 3 -3 14 -11 17 -16 19 -29 9 -13 -11 -13 -10 -1 6
12 16 9 22 -12 18 -5 -1 -6 3 -2 9 3 6 12 8 18 4 7 -3 5 0 -4 8 -9 7 -15 21
-13 31 1 9 -4 17 -12 17 -8 0 -13 3 -13 8 3 18 -2 33 -9 28 -5 -3 -9 1 -9 9 0
8 4 12 8 10 10 -7 5 22 -6 32 -4 5 -5 1 0 -7 5 -9 5 -12 -1 -7 -5 5 -10 13
-10 18 -3 22 -5 23 -15 9 -9 -13 -10 -13 -6 1 3 9 0 22 -6 29 -7 7 4 3 23 -10
30 -20 32 -21 18 -4 -17 19 -17 21 0 39 17 19 17 19 -5 1 -28 -23 -29 -16 -5
24 10 16 22 27 27 22 5 -4 5 -1 1 6 -6 11 -11 11 -24 0 -10 -7 -6 0 8 15 22
25 22 27 5 22 -20 -6 -20 -6 -1 9 10 8 22 13 27 11 4 -3 11 0 15 6 4 7 3 9 -3
6 -6 -4 -13 0 -17 8 -3 9 0 15 9 15 8 0 15 5 15 10 0 6 -4 10 -9 10 -5 0 -12
7 -15 16 -3 8 -2 12 3 9 5 -3 12 -1 16 5 3 5 2 10 -4 10 -5 0 -8 6 -7 14 3 22
27 47 38 40 6 -4 5 4 -2 16 -9 17 -9 25 1 34 9 8 10 8 4 -3 -6 -10 -4 -12 4
-6 9 5 10 10 2 18 -13 13 -15 30 -2 23 5 -4 8 2 6 11 -2 10 -4 18 -5 18 -1 0
-3 17 -4 37 -1 20 1 35 6 32 4 -3 8 -1 8 5 0 5 -6 12 -12 14 -10 4 -10 6 0 6
8 1 10 6 6 13 -4 7 -8 23 -9 36 -1 21 0 22 12 6 7 -10 13 -13 13 -7 0 7 -7 19
-16 27 -10 10 -11 16 -3 16 9 0 8 4 -1 15 -10 12 -10 15 0 15 9 0 9 4 -1 17
-8 9 -9 14 -3 10 6 -3 11 0 11 8 0 10 -5 11 -18 5 -15 -9 -16 -7 -6 14 7 14
16 22 22 18 5 -3 4 2 -4 11 -9 11 -21 15 -35 12 -12 -4 -16 -3 -10 2 14 11 24
40 16 48 -4 3 -7 14 -7 23 0 11 -8 17 -22 16 -14 -1 -20 3 -16 10 13 21 11 35
-4 29 -12 -5 -14 -1 -8 15 4 14 2 22 -5 22 -6 0 -9 -4 -5 -9 3 -5 1 -13 -5
-16 -6 -4 -10 -3 -9 2 4 26 -2 44 -13 37 -10 -6 -10 -5 -2 7 9 11 8 17 -4 29
-14 13 -15 12 -9 -3 3 -9 2 -19 -4 -22 -5 -4 -9 -3 -8 2 4 24 -2 53 -11 48 -5
-3 -10 1 -10 9 0 9 -5 16 -11 16 -5 0 -7 -5 -3 -11 4 -8 0 -8 -15 0 -11 7 -21
14 -21 17 0 3 5 2 11 -2 8 -4 8 0 0 15 -7 11 -14 21 -17 21 -3 0 -3 -4 0 -9 3
-5 -1 -11 -9 -14 -9 -4 -12 -1 -9 7 3 8 0 17 -5 21 -6 3 -9 10 -7 14 3 4 -9 5
-26 3 -21 -3 -29 -1 -24 7 5 7 -1 11 -14 11 -13 0 -19 -4 -14 -12 4 -7 3 -8
-5 -4 -6 4 -10 15 -9 24 2 12 -3 16 -19 14 -13 -2 -23 2 -23 9 0 8 -5 7 -17
-2 -11 -10 -14 -10 -9 -1 5 8 0 12 -13 12 -11 0 -30 10 -42 23 -16 16 -20 18
-16 5 3 -10 1 -20 -5 -24 -7 -4 -8 -3 -4 4 4 7 1 12 -9 12 -9 0 -14 4 -11 9 3
5 -5 8 -18 7 -13 0 -22 -5 -19 -11 2 -5 -4 0 -15 12 -17 20 -21 21 -26 6 -4
-9 -9 -13 -13 -10 -3 4 -12 2 -19 -4 -8 -7 -14 -6 -20 2 -5 8 -3 9 6 4 9 -6
11 -4 5 5 -6 10 -11 9 -22 -6 -13 -18 -13 -17 -11 6 3 24 1 25 -59 25 -34 0
-59 -3 -57 -7z m18 -13 c-4 -8 -9 -15 -13 -16 -3 0 -14 -2 -24 -4 -9 -2 -15 1
-11 6 3 5 9 7 14 4 4 -3 13 2 20 10 16 19 21 19 14 0z m17 -12 c-12 -20 -14
-14 -5 12 4 9 9 14 11 11 3 -2 0 -13 -6 -23z m71 20 c-6 -3 -10 -8 -8 -11 2
-4 -6 -8 -19 -8 -18 -1 -21 1 -13 10 7 7 21 12 32 13 12 1 15 -1 8 -4z m-1907
-63 c3 -6 -1 -7 -9 -4 -18 7 -21 14 -7 14 6 0 13 -4 16 -10z m2130 0 c3 -5 1
-10 -4 -10 -6 0 -11 5 -11 10 0 6 2 10 4 10 3 0 8 -4 11 -10z m202 -75 c4 -4
3 -5 -4 -2 -6 4 -13 2 -15 -5 -3 -8 -6 -6 -10 4 -7 17 15 19 29 3z m-2063 -50
c15 -19 23 -35 18 -35 -5 0 -15 11 -22 25 -7 13 -16 22 -20 20 -4 -2 -7 2 -7
10 0 20 1 20 31 -20z m1160 -56 c-3 -5 -10 -7 -15 -3 -5 3 -7 10 -3 15 3 5 10
7 15 3 5 -3 7 -10 3 -15z m1116 -119 c0 -5 -5 -10 -11 -10 -5 0 -7 5 -4 10 3
6 8 10 11 10 2 0 4 -4 4 -10z m5 -29 c3 -5 2 -12 -3 -15 -5 -3 -9 1 -9 9 0 17
3 19 12 6z m25 -55 c0 -2 -6 -9 -14 -15 -11 -9 -16 -9 -22 0 -4 7 -3 9 4 5 6
-3 13 -2 17 4 6 10 15 14 15 6z m-2193 -241 c0 -8 -4 -12 -9 -9 -5 3 -6 10 -3
15 9 13 12 11 12 -6z m913 -175 c0 -5 -2 -10 -4 -10 -3 0 -8 5 -11 10 -3 6 -1
10 4 10 6 0 11 -4 11 -10z m-955 -40 c3 -6 -1 -7 -9 -4 -18 7 -21 14 -7 14 6
0 13 -4 16 -10z m384 -143 c0 -8 -2 -8 -6 1 -4 10 -8 10 -21 0 -15 -12 -16
-11 -3 4 14 19 32 15 30 -5z m585 7 c3 -8 2 -12 -4 -9 -6 3 -10 10 -10 16 0
14 7 11 14 -7z m-419 -4 c3 -5 1 -10 -4 -10 -6 0 -11 5 -11 10 0 6 2 10 4 10
3 0 8 -4 11 -10z m209 -2 c-3 -4 -9 -8 -15 -8 -5 0 -9 4 -9 8 0 5 7 9 15 9 8
0 12 -4 9 -9z m-2107 -483 c0 -8 -4 -12 -9 -9 -5 3 -6 10 -3 15 9 13 12 11 12
-6z m3703 -80 c0 -2 -9 -3 -19 -2 -11 0 -18 5 -15 9 4 6 34 0 34 -7z m-3792
-67 c-7 -7 -22 -20 -33 -28 -15 -10 -14 -7 4 13 14 15 29 27 33 27 5 0 3 -6
-4 -12z m-108 -162 c0 -3 -4 -8 -10 -11 -5 -3 -10 -1 -10 4 0 6 5 11 10 11 6
0 10 -2 10 -4z m-66 -71 c-4 -8 -11 -15 -16 -15 -6 0 -5 6 2 15 7 8 14 15 16
15 2 0 1 -7 -2 -15z m-154 -115 c0 -5 -2 -10 -4 -10 -3 0 -8 5 -11 10 -3 6 -1
10 4 10 6 0 11 -4 11 -10z m-227 -20 c3 -11 1 -18 -4 -14 -5 3 -9 12 -9 20 0
20 7 17 13 -6z m4554 -45 c0 -8 -4 -12 -9 -9 -5 3 -6 10 -3 15 9 13 12 11 12
-6z m-4763 -206 c-3 -6 0 -15 7 -20 9 -6 10 -9 2 -9 -15 0 -26 17 -18 30 3 6
8 10 11 10 3 0 2 -5 -2 -11z m16 -203 c0 -3 -4 -8 -10 -11 -5 -3 -10 -1 -10 4
0 6 5 11 10 11 6 0 10 -2 10 -4z m-168 -128 c-7 -7 -12 -8 -12 -2 0 14 12 26
19 19 2 -3 -1 -11 -7 -17z m5102 -27 c-5 -3 -12 -10 -15 -14 -4 -4 -9 -1 -13
8 -3 9 -2 13 4 10 6 -3 10 -1 10 5 0 6 5 8 11 4 6 -3 7 -9 3 -13z m41 -161
c-3 -5 -14 -10 -23 -9 -14 0 -13 2 3 9 27 11 27 11 20 0z m62 -432 c-3 -8 -6
-5 -6 6 -1 11 2 17 5 13 3 -3 4 -12 1 -19z m-6117 -12 c0 -3 -4 -8 -10 -11 -5
-3 -10 -1 -10 4 0 6 5 11 10 11 6 0 10 -2 10 -4z m-209 -283 c12 -16 12 -17
-2 -6 -9 7 -20 9 -24 5 -5 -4 -5 -1 -1 6 9 16 11 15 27 -5z m6416 -199 c-3 -3
-12 -4 -19 -1 -8 3 -5 6 6 6 11 1 17 -2 13 -5z m-6367 -84 c0 -5 -2 -10 -4
-10 -3 0 -8 5 -11 10 -3 6 -1 10 4 10 6 0 11 -4 11 -10z m355 -650 c-3 -5 -12
-10 -18 -10 -7 0 -6 4 3 10 19 12 23 12 15 0z m140 -188 c-3 -3 -11 0 -18 7
-9 10 -8 11 6 5 10 -3 15 -9 12 -12z m5965 -263 c0 -6 -7 -9 -14 -6 -10 4 -13
1 -9 -8 3 -8 10 -12 16 -8 6 4 7 1 2 -7 -6 -10 -11 -9 -21 5 -7 10 -11 22 -8
26 8 13 34 11 34 -2z m-4 -103 c0 -19 -4 -32 -8 -30 -5 3 -6 10 -3 15 4 5 0 9
-7 9 -9 0 -9 3 2 10 8 5 11 10 7 10 -5 0 -5 5 -2 10 10 15 11 13 11 -24z
m-5248 -51 c-3 -3 -9 2 -12 12 -6 14 -5 15 5 6 7 -7 10 -15 7 -18z m32 10 c-7
-9 -15 -13 -19 -10 -3 3 1 10 9 15 21 14 24 12 10 -5z m5217 -20 c0 -22 -14
-18 -20 4 -3 13 0 18 7 15 7 -3 13 -11 13 -19z m-5025 -39 c7 4 8 2 4 -5 -9
-13 -26 -5 -25 12 0 9 2 8 6 -1 2 -6 10 -9 15 -6z m5023 -43 c0 -32 -4 -54
-12 -57 -8 -3 -10 1 -6 11 5 12 3 14 -8 8 -8 -5 -5 2 6 14 22 26 23 30 3 42
-10 7 -10 9 0 9 7 0 10 5 7 10 -4 6 -11 8 -16 5 -5 -4 -9 -2 -9 4 0 5 8 9 18
8 14 -1 17 -10 17 -54z m-4515 25 c0 -4 -4 -8 -9 -8 -6 0 -12 4 -15 8 -3 5 1
9 9 9 8 0 15 -4 15 -9z m4516 -133 c0 -17 -3 -21 -11 -15 -7 6 -15 6 -20 2 -4
-4 -1 3 6 16 18 29 25 28 25 -3z m-1 -149 c0 -63 -3 -112 -8 -109 -4 2 -5 9
-2 14 4 5 0 9 -7 9 -9 0 -9 3 2 10 14 9 7 14 -15 11 -5 -1 -3 4 5 11 23 19 25
42 3 34 -16 -5 -16 -4 -3 7 23 18 25 41 3 33 -16 -5 -16 -4 -3 7 23 18 25 41
3 33 -16 -5 -16 -4 -3 6 17 14 19 27 7 45 -5 8 -3 11 5 8 10 -4 14 -33 13
-119z m2 -141 c0 -22 -14 -18 -20 4 -3 13 0 18 7 15 7 -3 13 -11 13 -19z
m-4332 -33 c-17 -15 -18 -15 -6 0 7 9 9 23 5 30 -6 10 -4 11 7 0 11 -10 10
-15 -6 -30z m4330 -49 c0 -32 -4 -54 -12 -57 -8 -3 -10 1 -6 11 5 12 3 14 -8
8 -8 -5 -5 2 6 14 22 26 23 30 3 42 -10 7 -10 9 0 9 7 0 10 5 7 10 -4 6 -11 8
-16 5 -5 -4 -9 -2 -9 4 0 5 8 9 18 8 14 -1 17 -10 17 -54z m-4341 -19 c3 -8 2
-12 -4 -9 -6 3 -10 10 -10 16 0 14 7 11 14 -7z m4342 -89 c0 -17 -3 -21 -11
-15 -7 6 -15 6 -20 2 -4 -4 -1 3 6 16 18 29 25 28 25 -3z m-1 -149 c0 -63 -3
-112 -8 -109 -4 2 -5 9 -2 14 4 5 0 9 -7 9 -9 0 -9 3 2 10 14 9 7 14 -15 11
-5 -1 -3 4 5 11 23 19 25 42 3 34 -16 -5 -16 -4 -3 7 23 18 25 41 3 33 -16 -5
-16 -4 -3 7 23 18 25 41 3 33 -16 -5 -16 -4 -3 6 17 14 19 27 7 45 -5 8 -3 11
5 8 10 -4 14 -33 13 -119z m-4434 21 c-10 -9 -11 -8 -5 6 3 10 9 15 12 12 3
-3 0 -11 -7 -18z m4436 -162 c0 -22 -14 -18 -20 4 -3 13 0 18 7 15 7 -3 13
-11 13 -19z m-2 -82 c0 -32 -4 -54 -12 -57 -8 -3 -10 1 -6 11 5 12 3 14 -8 8
-8 -5 -5 2 6 14 22 26 23 30 3 42 -10 7 -10 9 0 9 7 0 10 5 7 10 -4 6 -11 8
-16 5 -5 -4 -9 -2 -9 4 0 5 8 9 18 8 14 -1 17 -10 17 -54z m-3585 -79 c0 -2
-9 0 -20 6 -11 6 -20 13 -20 16 0 2 9 0 20 -6 11 -6 20 -13 20 -16z m170 6 c0
-5 -2 -10 -4 -10 -3 0 -8 5 -11 10 -3 6 -1 10 4 10 6 0 11 -4 11 -10z m110 -5
c7 -9 8 -15 2 -15 -5 0 -12 7 -16 15 -3 8 -4 15 -2 15 2 0 9 -7 16 -15z m105
5 c3 -5 1 -10 -4 -10 -6 0 -11 5 -11 10 0 6 2 10 4 10 3 0 8 -4 11 -10z m3201
-24 c0 -25 -4 -32 -12 -26 -6 6 -15 6 -20 2 -5 -4 0 3 10 16 11 12 16 22 12
22 -4 0 -4 5 -1 10 10 15 11 13 11 -24z m-2256 10 c0 -3 -4 -8 -10 -11 -5 -3
-10 -1 -10 4 0 6 5 11 10 11 6 0 10 -2 10 -4z m21 -33 c12 -16 12 -17 -2 -6
-9 7 -20 9 -24 5 -5 -4 -5 -1 -1 6 9 16 11 15 27 -5z m94 5 c5 4 5 1 0 -6 -5
-10 -10 -11 -18 -3 -7 7 -15 7 -26 -2 -14 -11 -14 -10 -2 6 9 12 17 14 26 7 6
-5 16 -6 20 -2z m1156 -26 c-7 -2 -18 1 -23 6 -8 8 -4 9 13 5 13 -4 18 -8 10
-11z m989 -13 c0 -14 -17 -10 -23 5 -4 10 -1 13 9 9 7 -3 14 -9 14 -14z"/>
<path d="M5135 6440 c-3 -6 1 -7 9 -4 18 7 21 14 7 14 -6 0 -13 -4 -16 -10z"/>
<path d="M3030 6430 c0 -5 5 -10 11 -10 5 0 7 5 4 10 -3 6 -8 10 -11 10 -2 0
-4 -4 -4 -10z"/>
<path d="M5308 6413 c7 -3 16 -2 19 1 4 3 -2 6 -13 5 -11 0 -14 -3 -6 -6z"/>
<path d="M2740 6399 c0 -5 5 -7 10 -4 6 3 10 8 10 11 0 2 -4 4 -10 4 -5 0 -10
-5 -10 -11z"/>
<path d="M4795 6400 c-3 -5 -1 -10 4 -10 6 0 11 5 11 10 0 6 -2 10 -4 10 -3 0
-8 -4 -11 -10z"/>
<path d="M3290 6381 c0 -5 7 -15 17 -22 15 -13 15 -12 4 9 -12 23 -21 28 -21
13z"/>
<path d="M4705 6350 c-4 -6 -11 -7 -17 -4 -7 4 -8 2 -4 -5 6 -9 12 -9 24 1 10
7 19 14 21 15 2 2 -1 3 -7 3 -6 0 -14 -5 -17 -10z"/>
<path d="M2367 6120 c-9 -11 -13 -20 -9 -20 4 0 15 9 25 20 9 11 13 20 9 20
-4 0 -15 -9 -25 -20z"/>
<path d="M2320 6000 c0 -5 5 -10 11 -10 5 0 7 5 4 10 -3 6 -8 10 -11 10 -2 0
-4 -4 -4 -10z"/>
<path d="M2318 5973 c6 -2 9 -10 6 -15 -4 -7 -2 -8 5 -4 13 9 5 26 -12 25 -9
0 -8 -2 1 -6z"/>
<path d="M5726 5561 c-3 -5 1 -14 9 -21 10 -9 15 -9 15 -1 0 6 -6 11 -12 11
-9 0 -8 4 2 10 9 6 10 10 3 10 -6 0 -14 -4 -17 -9z"/>
<path d="M5780 5000 c8 -5 20 -10 25 -10 6 0 3 5 -5 10 -8 5 -19 10 -25 10 -5
0 -3 -5 5 -10z"/>
<path d="M5810 4921 c0 -6 5 -13 10 -16 6 -3 10 1 10 9 0 9 -4 16 -10 16 -5 0
-10 -4 -10 -9z"/>
<path d="M5877 4795 c-6 -15 10 -32 20 -21 4 3 1 6 -5 6 -6 0 -9 7 -6 15 4 8
4 15 1 15 -3 0 -7 -7 -10 -15z"/>
<path d="M5917 4724 c-3 -4 -1 -16 5 -28 6 -11 11 -22 10 -23 -1 -2 0 -3 3 -3
3 0 7 0 10 0 3 0 -1 10 -10 23 -8 13 -12 27 -8 30 3 4 4 7 1 7 -2 0 -8 -3 -11
-6z"/>
<path d="M1820 4459 c0 -5 5 -7 10 -4 6 3 10 8 10 11 0 2 -4 4 -10 4 -5 0 -10
-5 -10 -11z"/>
<path d="M1275 4300 c3 -5 8 -10 11 -10 2 0 4 5 4 10 0 6 -5 10 -11 10 -5 0
-7 -4 -4 -10z"/>
<path d="M1345 4051 c-3 -5 -2 -12 3 -15 5 -3 9 1 9 9 0 17 -3 19 -12 6z"/>
<path d="M6205 3971 c-3 -5 -2 -12 3 -15 5 -3 9 1 9 9 0 17 -3 19 -12 6z"/>
<path d="M6338 3463 c6 -3 10 -9 6 -14 -8 -14 2 -11 14 4 8 10 6 13 -11 14
-12 0 -16 -1 -9 -4z"/>
<path d="M508 3413 c6 -2 9 -10 6 -15 -4 -7 -2 -8 5 -4 13 9 5 26 -12 25 -9 0
-8 -2 1 -6z"/>
<path d="M121 3133 c-1 -17 16 -25 25 -12 4 7 3 9 -4 5 -5 -3 -13 0 -15 6 -4
9 -6 10 -6 1z"/>
<path d="M10 2802 c0 -5 7 -9 15 -9 8 0 12 4 9 9 -3 4 -9 8 -15 8 -5 0 -9 -4
-9 -8z"/>
<path d="M6460 2678 c0 -4 4 -8 9 -8 6 0 12 4 15 8 3 5 -1 9 -9 9 -8 0 -15 -4
-15 -9z"/>
<path d="M6483 2416 c0 -8 6 -12 14 -9 7 3 10 9 7 14 -8 14 -21 11 -21 -5z"/>
<path d="M6500 2315 c0 -8 2 -15 4 -15 2 0 6 7 10 15 3 8 1 15 -4 15 -6 0 -10
-7 -10 -15z"/>
<path d="M6526 1591 c-3 -4 4 -17 15 -27 18 -16 19 -16 13 -1 -3 9 -10 17 -16
17 -5 0 -6 5 -3 10 3 6 4 10 1 10 -3 0 -7 -4 -10 -9z"/>
<path d="M1086 1431 c-4 -5 -2 -12 3 -15 5 -4 12 -2 15 3 4 5 2 12 -3 15 -5 4
-12 2 -15 -3z"/>
<path d="M1176 1382 c-2 -4 4 -8 14 -8 10 0 16 4 14 8 -3 4 -9 8 -14 8 -5 0
-11 -4 -14 -8z"/>
<path d="M1436 1322 c-3 -5 1 -9 9 -9 8 0 12 4 9 9 -3 4 -7 8 -9 8 -2 0 -6 -4
-9 -8z"/>
<path d="M2150 1325 c0 -5 5 -17 10 -25 5 -8 10 -10 10 -5 0 6 -5 17 -10 25
-5 8 -10 11 -10 5z"/>
<path d="M1693 1273 c0 -9 4 -10 12 -3 7 5 15 7 18 3 4 -3 7 -1 7 5 0 6 -8 10
-18 9 -10 0 -19 -7 -19 -14z"/>
<path d="M2284 1152 c3 -5 0 -13 -6 -15 -9 -4 -10 -6 -1 -6 17 -1 25 16 12 25
-7 4 -9 3 -5 -4z"/>
<path d="M2043 485 c0 -8 4 -12 9 -9 5 3 6 10 3 15 -9 13 -12 11 -12 -6z"/>
<path d="M2680 250 c-9 -6 -10 -10 -3 -10 6 0 15 5 18 10 8 12 4 12 -15 0z"/>
<path d="M2707 247 c-3 -8 1 -14 8 -14 7 0 11 6 8 14 -6 16 -10 16 -16 0z"/>
<path d="M2815 239 c-4 -6 -5 -12 -2 -15 2 -3 7 2 10 11 7 17 1 20 -8 4z"/>
<path d="M2877 243 c-4 -3 -7 -11 -7 -17 0 -6 5 -5 12 2 6 6 9 14 7 17 -3 3
-9 2 -12 -2z"/>
<path d="M2980 233 c0 -1 8 -7 18 -12 13 -7 19 -6 19 2 0 7 -9 13 -19 13 -10
0 -18 -1 -18 -3z"/>
<path d="M3039 230 c-8 -6 -8 -9 0 -14 6 -4 11 -2 11 4 0 6 4 9 9 5 5 -3 12
-2 15 3 6 10 -19 11 -35 2z"/>
<path d="M3974 199 c-4 -7 -3 -9 4 -5 5 3 13 0 15 -6 4 -9 6 -10 6 -1 1 17
-16 25 -25 12z"/>
<path d="M5216 158 c3 -5 10 -6 15 -3 13 9 11 12 -6 12 -8 0 -12 -4 -9 -9z"/>
<path d="M5491 157 c2 -1 13 -9 24 -17 19 -14 19 -14 6 3 -7 9 -18 17 -24 17
-6 0 -8 -1 -6 -3z"/>
<path d="M5840 140 c-9 -6 -10 -10 -3 -10 6 0 15 5 18 10 8 12 4 12 -15 0z"/>
<path d="M6316 123 c-6 -14 -5 -15 5 -6 7 7 10 15 7 18 -3 3 -9 -2 -12 -12z"/>
<path d="M6520 120 c-9 -6 -10 -10 -3 -10 6 0 15 5 18 10 8 12 4 12 -15 0z"/>
</g>
</svg>
