<svg id="svg" xmlns="http://www.w3.org/2000/svg" xmlns:xlink="http://www.w3.org/1999/xlink" width="400" height="400" viewBox="0, 0, 400,400" version="1.1"><g id="svgg"><path id="path0" d="M0.000 200.000 L 0.000 400.000 200.000 400.000 L 400.000 400.000 400.000 200.000 L 400.000 0.000 200.000 0.000 L 0.000 0.000 0.000 200.000 M166.705 25.498 C 173.305 34.269,173.879 35.002,174.738 35.762 L 175.600 36.524 175.600 35.208 C 175.600 34.485,175.435 33.242,175.234 32.446 C 174.470 29.424,173.516 23.359,173.655 22.400 C 173.978 20.169,175.331 21.677,186.272 36.460 C 187.632 38.297,191.008 42.860,193.773 46.600 C 196.539 50.340,199.063 53.707,199.381 54.081 C 199.700 54.456,201.558 56.886,203.510 59.481 C 205.463 62.077,209.072 66.867,211.530 70.127 C 216.522 76.747,216.370 76.340,215.001 79.436 C 214.452 80.678,213.623 83.519,213.159 85.747 C 209.722 102.274,209.162 103.176,201.841 103.984 C 186.238 105.704,168.934 115.268,160.196 127.000 C 159.541 127.880,158.907 128.690,158.789 128.800 C 157.710 129.800,155.392 133.120,154.181 135.400 C 150.852 141.669,150.708 141.254,150.776 125.552 C 150.901 96.714,145.793 86.379,127.690 78.847 C 123.928 77.282,117.355 71.654,114.457 67.518 C 112.130 64.196,112.200 53.369,114.557 52.084 C 115.968 51.315,127.772 51.229,131.200 51.963 C 133.204 52.392,138.192 53.216,140.503 53.500 C 141.997 53.684,142.013 53.670,143.019 51.395 C 145.864 44.963,150.576 42.082,159.425 41.364 C 163.627 41.023,163.414 41.494,162.801 33.891 C 161.509 17.878,161.304 18.319,166.705 25.498 M262.316 44.643 C 262.389 45.625,261.983 47.442,261.216 49.562 C 259.264 54.957,259.582 56.068,263.248 56.654 C 267.377 57.314,275.137 63.030,277.330 67.027 C 278.929 69.940,279.954 72.401,280.569 74.802 C 280.935 76.230,281.452 77.690,281.717 78.046 C 281.983 78.403,283.325 80.196,284.700 82.031 C 287.503 85.772,287.763 86.929,286.400 89.600 C 285.960 90.462,285.600 91.634,285.600 92.204 C 285.600 93.460,284.773 95.138,283.656 96.149 C 283.202 96.560,282.631 97.499,282.388 98.235 C 281.731 100.228,279.993 101.434,276.097 102.603 C 269.236 104.662,266.567 105.946,265.695 107.608 C 265.044 108.850,265.170 120.582,265.848 121.800 C 266.398 122.790,267.166 124.947,267.627 126.800 C 267.818 127.570,268.269 129.370,268.629 130.800 C 270.554 138.445,269.560 139.492,265.989 133.582 C 265.083 132.082,264.039 130.503,263.671 130.074 C 263.302 129.645,262.022 128.058,260.827 126.547 C 250.972 114.087,233.756 105.095,217.200 103.759 C 211.384 103.290,211.042 102.937,212.510 98.910 C 213.663 95.747,214.155 94.036,215.011 90.200 C 215.354 88.660,215.926 86.140,216.281 84.600 C 218.177 76.372,224.220 67.679,232.968 60.594 C 234.051 59.717,235.426 58.531,236.023 57.957 C 237.363 56.672,242.080 52.638,244.217 50.949 C 245.088 50.261,246.790 48.904,248.000 47.934 C 252.229 44.544,253.590 44.077,255.451 45.381 C 256.216 45.917,256.385 45.852,257.640 44.541 C 260.144 41.925,262.117 41.968,262.316 44.643 M150.544 50.769 C 148.154 52.226,148.477 52.400,153.580 52.400 C 158.217 52.400,158.388 52.370,157.934 51.642 C 156.921 50.020,152.608 49.510,150.544 50.769 M265.070 71.361 C 264.845 71.949,265.103 72.400,265.667 72.400 C 265.850 72.400,266.000 72.040,266.000 71.600 C 266.000 70.683,265.391 70.526,265.070 71.361 M220.400 106.660 C 246.014 111.162,265.178 128.744,271.780 153.800 C 275.844 169.223,272.839 184.631,260.390 212.200 C 258.602 216.160,256.665 220.480,256.085 221.800 C 252.253 230.535,234.996 263.169,224.993 280.600 C 220.086 289.152,218.704 291.455,213.174 300.300 C 210.346 304.824,210.605 304.984,204.734 295.100 C 199.073 285.571,193.600 276.073,193.600 275.779 C 193.600 275.672,193.172 274.907,192.650 274.079 C 191.764 272.675,187.430 265.033,184.666 260.000 C 184.002 258.790,182.708 256.527,181.790 254.970 C 179.675 251.381,168.690 229.558,166.201 224.000 C 163.523 218.019,162.868 216.571,161.349 213.271 C 160.607 211.660,160.000 210.278,160.000 210.200 C 160.000 210.122,159.373 208.700,158.606 207.041 C 151.869 192.454,147.881 178.125,147.854 168.400 C 147.792 146.074,158.937 126.650,178.655 114.716 C 184.781 111.007,186.838 110.157,195.200 107.869 C 203.290 105.657,212.246 105.227,220.400 106.660 M204.600 133.809 C 183.550 137.212,169.851 159.809,176.756 179.739 C 188.179 212.704,233.160 212.480,244.639 179.400 C 246.341 174.495,246.347 163.915,244.651 158.600 C 239.062 141.080,222.612 130.897,204.600 133.809 M38.314 330.738 C 39.036 331.196,38.481 332.389,37.345 332.821 C 36.070 333.306,36.127 334.401,37.629 338.251 C 39.683 343.516,39.902 344.093,41.022 347.200 C 41.617 348.850,42.326 350.740,42.598 351.400 C 42.870 352.060,43.581 353.950,44.177 355.600 C 46.700 362.582,47.600 364.577,48.016 364.111 C 48.168 363.940,49.410 361.010,50.776 357.600 C 53.978 349.602,54.165 349.128,55.408 345.800 C 55.983 344.260,56.733 342.280,57.075 341.400 C 57.416 340.520,57.835 339.440,58.006 339.000 C 59.984 333.891,59.998 333.393,58.177 332.792 C 57.058 332.423,56.781 332.139,56.877 331.461 C 57.010 330.529,68.033 329.873,68.906 330.746 C 69.550 331.390,68.489 332.694,67.108 332.953 C 65.859 333.188,63.600 335.957,63.600 337.255 C 63.600 337.487,63.345 338.154,63.033 338.738 C 62.722 339.322,61.713 341.690,60.793 344.000 C 59.872 346.310,58.886 348.740,58.601 349.400 C 58.093 350.579,57.919 350.996,56.591 354.200 C 56.227 355.080,55.674 356.278,55.364 356.862 C 55.054 357.446,54.800 358.132,54.800 358.386 C 54.800 358.641,54.335 359.873,53.768 361.125 C 52.624 363.646,52.354 364.269,51.397 366.600 C 50.743 368.195,50.406 368.973,48.877 372.422 C 47.883 374.664,47.092 375.360,45.882 375.056 C 44.968 374.827,44.490 373.972,42.609 369.200 C 42.219 368.210,41.671 366.860,41.392 366.200 C 41.113 365.540,40.705 364.550,40.486 364.000 C 40.038 362.875,37.758 357.235,37.010 355.400 C 36.740 354.740,36.295 353.570,36.020 352.800 C 35.744 352.030,35.367 351.040,35.181 350.600 C 34.995 350.160,34.274 348.360,33.580 346.600 C 32.886 344.840,32.089 342.860,31.809 342.200 C 31.530 341.540,30.973 340.100,30.572 339.000 C 29.106 334.979,28.262 333.855,26.171 333.144 C 24.262 332.494,23.267 331.292,24.155 330.706 C 24.765 330.303,37.674 330.333,38.314 330.738 M174.471 337.468 C 176.797 338.220,176.822 338.291,176.521 343.227 C 176.201 348.485,174.795 349.238,173.598 344.793 C 171.863 338.351,156.095 337.777,151.226 343.980 C 147.057 349.291,147.280 360.255,151.663 365.411 C 153.816 367.945,155.079 368.790,159.961 370.971 C 164.672 373.075,172.622 370.945,174.318 367.125 C 174.790 366.061,175.440 365.200,175.772 365.200 C 176.428 365.200,177.357 366.622,177.039 367.137 C 176.930 367.314,176.657 368.598,176.433 369.990 C 175.700 374.539,173.849 375.412,165.000 375.380 C 154.478 375.342,146.832 371.484,143.621 364.594 C 143.109 363.497,142.511 362.205,142.290 361.722 C 141.749 360.539,141.718 351.110,142.252 349.936 C 146.216 341.207,150.523 337.698,158.400 336.780 C 162.281 336.328,172.265 336.756,174.471 337.468 M200.270 337.700 C 200.683 338.415,201.353 339.810,201.760 340.800 C 202.167 341.790,202.735 343.140,203.021 343.800 C 203.843 345.698,204.638 347.683,205.183 349.200 C 205.695 350.626,205.954 351.238,207.770 355.311 C 208.336 356.582,208.800 357.814,208.800 358.049 C 208.800 358.284,209.057 358.954,209.370 359.538 C 209.684 360.122,210.516 362.040,211.219 363.800 C 213.632 369.845,215.321 372.400,216.901 372.400 C 218.369 372.400,219.252 373.155,218.791 374.017 C 218.416 374.717,217.933 374.800,214.212 374.800 C 209.059 374.800,208.000 374.460,208.000 372.804 C 208.000 372.136,207.838 371.277,207.641 370.895 C 207.444 370.513,206.972 369.390,206.593 368.400 C 204.921 364.031,203.919 361.854,203.421 361.506 C 202.860 361.114,193.533 361.127,192.914 361.521 C 191.086 362.683,188.972 372.036,190.369 372.783 C 191.052 373.149,191.132 373.380,190.791 374.017 C 190.284 374.964,180.987 375.227,180.080 374.320 C 179.216 373.456,179.574 372.841,181.100 372.566 C 181.925 372.417,182.836 372.108,183.123 371.879 C 183.723 371.402,186.400 365.841,186.400 365.071 C 186.400 364.790,186.547 364.389,186.728 364.180 C 186.908 363.971,187.564 362.450,188.186 360.800 C 190.802 353.856,195.856 341.151,197.136 338.300 C 198.170 335.999,199.178 335.806,200.270 337.700 M309.952 337.461 C 319.261 341.169,323.817 348.741,322.391 358.138 C 319.421 377.718,292.312 382.186,283.568 364.536 L 281.888 361.144 281.857 356.208 C 281.841 353.492,282.018 350.850,282.252 350.336 C 284.075 346.321,285.296 344.355,287.200 342.370 C 289.448 340.027,293.239 337.600,294.652 337.600 C 295.086 337.600,295.611 337.431,295.820 337.224 C 296.765 336.289,307.459 336.468,309.952 337.461 M95.799 339.418 C 95.799 342.332,94.611 344.756,93.835 343.428 C 92.411 340.993,91.998 340.793,87.862 340.527 C 84.709 340.325,83.854 340.386,83.569 340.837 C 83.171 341.466,83.062 351.576,83.443 352.567 C 83.763 353.403,89.854 353.447,92.559 352.632 C 94.920 351.922,95.212 352.428,94.846 356.600 C 94.574 359.697,92.784 360.997,92.475 358.321 C 92.340 357.148,92.351 357.151,86.440 356.590 C 83.142 356.277,83.214 356.124,83.206 363.456 C 83.198 371.497,83.131 371.404,88.942 371.389 C 93.560 371.377,93.678 371.321,95.306 368.386 C 96.859 365.587,98.011 369.970,96.539 373.073 C 95.563 375.129,94.669 375.313,87.400 374.953 C 83.880 374.778,79.781 374.691,78.291 374.759 C 74.866 374.917,72.749 373.369,75.300 372.573 C 76.777 372.112,76.788 371.992,76.794 355.929 C 76.800 339.655,76.752 339.200,75.020 339.200 C 74.251 339.200,73.475 338.103,73.745 337.399 C 73.949 336.867,75.404 336.801,84.890 336.894 L 95.800 337.000 95.799 339.418 M136.030 337.656 C 136.572 338.669,136.345 343.015,135.717 343.643 C 135.149 344.211,133.742 343.478,133.414 342.443 C 133.020 341.204,131.243 340.759,127.178 340.884 L 123.400 341.000 123.285 355.400 C 123.149 372.338,123.155 372.398,124.918 372.406 C 126.738 372.415,127.521 372.984,126.957 373.889 C 126.296 374.950,115.265 375.177,114.510 374.144 C 113.955 373.386,114.478 372.400,115.435 372.400 C 116.688 372.400,116.810 370.821,116.705 355.917 L 116.600 341.000 112.115 340.887 L 107.631 340.774 106.018 342.231 C 104.097 343.967,103.200 343.841,103.200 341.836 C 103.200 341.072,103.380 340.336,103.600 340.200 C 103.820 340.064,104.000 339.363,104.000 338.643 C 104.000 336.721,103.315 336.800,120.053 336.800 C 135.501 336.800,135.574 336.804,136.030 337.656 M252.315 340.251 C 252.459 344.296,251.818 344.876,249.691 342.622 C 248.042 340.874,247.507 340.735,243.000 340.882 L 239.400 341.000 239.295 355.917 C 239.183 371.880,239.240 372.396,241.114 372.406 C 242.575 372.414,243.309 372.938,243.134 373.848 C 243.000 374.545,242.539 374.600,236.795 374.600 L 230.600 374.600 230.600 373.600 C 230.600 372.901,230.844 372.565,231.409 372.484 C 233.088 372.244,233.216 370.965,233.105 355.564 L 233.000 341.000 228.266 340.887 L 223.532 340.774 222.202 342.226 C 220.395 344.199,218.955 343.908,219.392 341.659 C 219.548 340.856,219.771 339.660,219.888 339.000 C 220.296 336.697,219.622 336.782,236.553 336.895 L 252.200 337.000 252.315 340.251 M271.850 337.106 C 272.367 337.444,271.857 339.200,271.241 339.200 C 269.671 339.200,269.600 339.909,269.605 355.529 C 269.612 372.943,269.525 372.231,271.667 372.518 C 273.635 372.782,273.780 372.917,273.218 373.966 C 272.561 375.194,261.475 375.262,260.822 374.042 C 260.399 373.251,260.740 372.757,262.021 372.305 C 263.279 371.861,263.600 368.338,263.600 354.996 C 263.600 341.387,263.473 340.290,261.816 339.534 C 260.774 339.060,260.168 337.899,260.598 337.204 C 260.885 336.739,271.152 336.650,271.850 337.106 M339.927 339.900 C 341.569 341.605,346.724 346.960,351.383 351.800 C 356.042 356.640,360.719 361.542,361.776 362.694 C 364.571 365.739,364.561 365.775,364.263 353.163 C 363.967 340.674,363.876 340.201,361.578 339.299 C 360.323 338.806,359.989 338.478,360.081 337.832 C 360.211 336.925,370.458 336.298,371.305 337.145 C 371.875 337.715,370.959 339.073,369.811 339.362 L 368.800 339.615 368.732 353.908 C 368.694 361.768,368.629 368.560,368.588 369.000 C 368.547 369.440,368.488 370.841,368.457 372.113 C 368.395 374.612,367.983 375.083,366.242 374.646 C 365.087 374.356,351.436 360.812,341.125 349.726 L 338.452 346.852 338.179 348.096 C 337.906 349.338,338.075 353.665,338.838 365.000 C 339.323 372.213,339.369 372.400,340.653 372.400 C 342.349 372.400,343.280 373.104,342.791 374.017 C 342.284 374.964,332.589 375.229,331.680 374.320 C 330.862 373.502,331.148 372.790,332.395 372.541 C 334.277 372.165,334.395 371.032,334.398 353.367 C 334.399 344.548,334.520 337.213,334.667 337.067 C 335.593 336.141,337.079 336.941,339.927 339.900 M296.451 340.467 C 285.342 344.734,285.720 365.478,297.000 370.618 C 301.164 372.516,306.685 372.245,310.110 369.976 C 317.363 365.173,317.878 350.226,311.028 343.376 C 307.356 339.704,301.488 338.533,296.451 340.467 M197.731 347.293 C 197.330 347.919,196.460 350.195,196.007 351.800 C 195.821 352.460,195.294 353.987,194.835 355.194 C 194.376 356.401,194.000 357.526,194.000 357.694 C 194.000 357.862,195.820 358.000,198.045 358.000 L 202.089 358.000 201.817 356.551 C 201.668 355.754,201.389 354.809,201.197 354.451 C 200.647 353.420,198.800 348.232,198.800 347.715 C 198.800 347.001,198.096 346.723,197.731 347.293 " stroke="none" fill="#dbdbde" fill-rule="evenodd"></path><path id="path1" d="M163.484 23.485 C 163.383 23.658,163.473 26.410,163.682 29.600 C 163.892 32.790,164.094 36.930,164.132 38.800 L 164.200 42.200 160.400 42.457 C 152.057 43.022,144.400 47.342,144.400 51.483 C 144.400 53.747,138.552 55.084,135.119 53.604 C 134.613 53.386,131.860 53.005,129.000 52.756 C 114.444 51.493,114.096 51.635,114.023 58.875 C 113.970 64.149,114.952 66.570,118.800 70.646 C 122.776 74.857,125.137 76.602,129.000 78.184 C 129.880 78.544,130.913 79.010,131.295 79.219 C 131.677 79.429,132.233 79.600,132.532 79.600 C 132.830 79.600,134.318 80.479,135.837 81.553 C 144.139 87.422,149.135 95.102,150.830 104.600 C 151.026 105.700,151.362 107.410,151.576 108.400 C 151.790 109.390,151.974 116.140,151.985 123.400 C 152.003 135.578,152.053 136.508,152.625 135.410 C 153.476 133.779,154.906 131.443,155.202 131.200 C 155.336 131.090,156.629 129.548,158.076 127.773 C 161.197 123.943,165.498 119.536,168.000 117.602 C 168.990 116.837,170.001 116.029,170.247 115.806 C 172.562 113.703,175.626 111.681,179.800 109.501 C 182.531 108.074,187.172 106.000,187.633 106.000 C 187.841 106.000,188.323 105.828,188.705 105.617 C 189.717 105.060,193.765 104.000,194.882 104.000 C 195.409 104.000,196.023 103.817,196.246 103.594 C 196.470 103.370,198.261 103.014,200.226 102.803 C 206.607 102.116,206.761 102.056,207.962 99.800 C 209.057 97.743,210.577 92.379,211.227 88.279 C 211.429 87.002,211.776 85.619,211.997 85.205 C 212.219 84.791,212.400 83.900,212.400 83.224 C 212.400 82.549,212.850 81.063,213.400 79.923 C 214.738 77.149,214.640 76.163,212.790 73.800 C 211.929 72.700,208.842 68.560,205.929 64.600 C 203.016 60.640,200.401 57.162,200.117 56.871 C 199.832 56.581,199.600 56.167,199.600 55.952 C 199.600 55.738,199.177 55.165,198.661 54.681 C 198.144 54.196,197.255 53.080,196.685 52.200 C 196.115 51.320,195.098 49.991,194.425 49.246 C 193.751 48.501,193.200 47.779,193.200 47.642 C 193.200 47.504,192.787 46.944,192.282 46.396 C 191.777 45.848,190.576 44.331,189.613 43.024 C 188.650 41.717,187.550 40.277,187.170 39.824 C 186.789 39.371,184.738 36.660,182.612 33.800 C 180.486 30.940,178.402 28.144,177.980 27.587 C 177.559 27.030,176.761 25.960,176.207 25.209 C 174.982 23.549,174.938 23.953,175.819 28.800 C 177.270 36.780,177.500 38.612,177.139 39.300 C 176.644 40.244,176.211 40.181,175.474 39.056 C 175.133 38.537,174.618 37.862,174.328 37.556 C 174.037 37.250,173.066 36.010,172.170 34.800 C 169.373 31.025,166.180 26.672,164.897 24.885 C 164.220 23.942,163.584 23.312,163.484 23.485 M258.451 44.994 C 256.555 46.612,254.800 47.073,254.800 45.953 C 254.800 44.440,250.794 46.568,245.800 50.734 C 245.360 51.101,244.100 52.120,243.000 52.999 C 224.852 67.499,219.787 74.277,216.400 88.600 C 215.516 92.340,214.312 96.799,213.724 98.508 C 212.419 102.306,212.351 102.231,217.600 102.802 C 237.938 105.016,255.472 115.752,266.429 132.700 C 269.380 137.263,269.030 133.477,265.535 123.000 C 264.306 119.317,264.200 118.604,264.202 114.000 C 264.204 106.107,265.222 104.944,274.600 102.113 C 279.695 100.575,280.737 99.927,281.455 97.853 C 281.743 97.021,282.494 95.859,283.123 95.271 C 283.887 94.556,284.360 93.621,284.545 92.458 C 284.698 91.500,285.088 90.204,285.411 89.578 C 286.711 87.065,286.255 85.446,283.135 81.490 C 280.952 78.723,280.192 77.423,279.940 76.029 C 278.377 67.379,270.240 58.588,262.448 57.132 C 258.601 56.413,258.338 55.566,260.200 49.884 C 262.385 43.214,261.953 42.005,258.451 44.994 M158.235 50.468 C 159.206 51.165,160.000 51.957,160.000 52.228 C 160.000 53.641,149.587 53.956,147.731 52.599 C 146.954 52.031,146.874 52.135,149.976 49.713 C 151.366 48.627,156.300 49.078,158.235 50.468 M267.900 69.852 C 269.159 70.190,269.021 70.941,267.600 71.478 C 266.722 71.809,266.400 72.190,266.400 72.899 C 266.400 74.328,265.972 74.513,264.930 73.534 C 262.752 71.488,264.752 69.009,267.900 69.852 M25.698 331.694 C 25.789 331.966,26.395 332.341,27.047 332.528 C 29.025 333.095,32.214 339.957,40.466 361.400 C 41.143 363.160,41.933 365.140,42.221 365.800 C 42.508 366.460,43.321 368.440,44.027 370.200 C 46.459 376.264,46.246 376.422,51.258 364.823 C 52.346 362.305,53.476 359.695,53.770 359.023 C 54.247 357.929,59.592 344.997,60.392 343.000 C 63.594 335.006,64.910 332.674,66.336 332.469 C 66.837 332.397,67.176 332.127,67.091 331.869 C 66.830 331.084,58.800 331.003,58.800 331.786 C 58.800 332.124,59.070 332.400,59.400 332.400 C 60.101 332.400,60.281 336.179,59.600 336.600 C 59.380 336.736,59.200 337.190,59.200 337.610 C 59.200 338.030,58.948 338.964,58.640 339.686 C 58.152 340.832,57.649 342.115,56.400 345.400 C 56.233 345.840,55.804 346.965,55.448 347.900 C 55.092 348.835,54.550 350.275,54.244 351.100 C 51.503 358.495,48.724 365.165,48.205 365.596 C 47.227 366.407,45.565 362.579,38.910 344.200 C 38.353 342.660,37.659 340.860,37.369 340.200 C 35.335 335.573,34.914 333.171,36.016 332.483 C 37.576 331.509,36.356 331.200,30.943 331.200 C 26.828 331.200,25.573 331.318,25.698 331.694 M105.203 337.800 C 105.023 338.020,104.744 339.078,104.584 340.150 L 104.294 342.101 105.840 341.050 C 107.933 339.628,116.860 339.418,117.586 340.774 C 118.080 341.697,118.119 367.185,117.631 370.157 C 117.416 371.467,117.010 372.340,116.404 372.797 L 115.498 373.480 116.449 373.735 C 117.692 374.067,121.549 374.070,123.201 373.740 L 124.501 373.480 123.551 372.763 L 122.600 372.046 122.600 356.123 L 122.600 340.200 127.415 340.088 L 132.230 339.977 133.573 341.176 C 134.312 341.836,135.070 342.280,135.258 342.164 C 135.807 341.825,135.669 338.000,135.100 337.790 C 134.029 337.395,105.528 337.405,105.203 337.800 M155.000 338.176 C 148.146 340.696,143.775 345.951,142.788 352.858 C 140.961 365.640,150.253 374.800,165.046 374.800 C 173.068 374.800,175.600 373.431,175.600 369.095 L 175.600 367.418 174.395 368.879 C 170.040 374.163,159.192 373.479,152.594 367.506 C 151.158 366.207,150.015 364.638,148.951 362.506 L 147.400 359.400 147.425 354.200 C 147.475 343.437,151.927 339.064,162.800 339.097 C 169.525 339.117,172.499 340.410,174.539 344.200 L 175.400 345.800 175.516 342.250 C 175.580 340.297,175.576 338.643,175.507 338.574 C 173.987 337.053,158.853 336.760,155.000 338.176 M197.837 338.500 C 197.507 339.215,196.863 340.790,196.407 342.000 C 195.951 343.210,195.422 344.560,195.232 345.000 C 195.042 345.440,194.137 347.780,193.222 350.200 C 185.615 370.301,184.800 372.087,182.860 372.888 C 181.800 373.325,181.800 373.325,183.400 373.639 C 186.992 374.345,190.010 373.850,188.897 372.737 C 188.066 371.906,188.398 370.380,190.894 363.546 C 191.915 360.752,191.872 360.767,198.357 360.890 L 204.200 361.000 204.876 362.400 C 205.248 363.170,205.818 364.430,206.143 365.200 C 206.467 365.970,207.197 367.657,207.766 368.950 C 208.335 370.242,208.800 371.796,208.800 372.403 C 208.800 373.714,209.552 374.005,212.800 373.955 C 215.766 373.908,217.385 373.469,216.125 373.051 C 214.546 372.529,212.952 370.184,211.029 365.555 C 209.988 363.050,208.701 360.050,208.168 358.889 C 207.636 357.728,207.200 356.608,207.200 356.400 C 207.200 356.192,206.774 355.072,206.254 353.911 C 205.733 352.750,204.992 350.990,204.606 350.000 C 204.220 349.010,203.755 347.840,203.573 347.400 C 203.390 346.960,202.481 344.710,201.553 342.400 C 199.221 336.599,198.880 336.241,197.837 338.500 M221.215 338.000 C 220.890 338.639,220.304 342.000,220.518 342.000 C 220.587 342.000,221.255 341.550,222.000 341.000 C 223.279 340.056,223.643 340.000,228.460 340.000 L 233.564 340.000 233.814 341.332 C 234.563 345.325,233.815 371.113,232.915 372.330 C 232.159 373.353,232.120 373.561,232.648 373.763 C 233.461 374.075,238.735 373.995,239.960 373.652 L 240.920 373.383 239.920 372.927 C 239.095 372.551,238.875 372.098,238.663 370.336 C 238.282 367.156,238.358 341.085,238.751 340.465 C 239.485 339.308,248.546 340.005,249.923 341.325 C 250.925 342.286,251.132 342.354,251.348 341.792 C 251.790 340.640,251.625 337.983,251.100 337.802 C 249.481 337.244,221.506 337.429,221.215 338.000 M294.668 338.396 C 277.355 345.617,279.008 370.143,297.079 374.160 C 321.102 379.500,332.063 345.744,308.831 337.967 C 305.111 336.721,298.180 336.931,294.668 338.396 M76.471 337.871 C 76.078 338.031,76.181 338.341,76.871 339.076 L 77.800 340.065 77.800 356.056 L 77.800 372.046 76.843 372.768 L 75.886 373.490 77.243 373.702 C 79.462 374.048,94.560 374.049,95.075 373.703 C 95.724 373.267,96.400 371.388,96.400 370.021 L 96.400 368.894 94.847 370.447 L 93.294 372.000 88.829 372.000 C 82.341 372.000,82.400 372.078,82.400 363.495 C 82.400 355.168,82.264 355.395,87.052 355.705 C 90.794 355.948,92.800 356.562,92.800 357.464 C 92.800 358.358,93.890 358.063,94.148 357.100 C 94.665 355.170,94.446 353.097,93.752 353.363 C 93.395 353.500,91.004 353.725,88.437 353.863 C 82.150 354.201,82.400 354.494,82.400 346.800 C 82.400 339.173,82.222 339.399,87.923 339.780 C 92.940 340.116,93.149 340.187,93.811 341.760 L 94.333 343.000 94.576 342.000 C 94.709 341.450,94.859 340.280,94.909 339.400 L 95.000 337.800 86.000 337.728 C 81.050 337.688,76.762 337.752,76.471 337.871 M262.484 337.870 C 262.118 338.017,262.257 338.366,262.965 339.074 C 264.379 340.488,264.471 341.698,264.328 357.000 C 264.195 371.107,264.090 372.010,262.459 372.966 C 261.068 373.782,266.418 374.376,269.536 373.753 C 270.740 373.512,270.752 373.489,269.985 372.853 C 267.825 371.060,267.698 340.525,269.844 338.927 C 271.070 338.014,269.994 337.600,266.476 337.632 C 264.564 337.649,262.768 337.756,262.484 337.870 M335.052 338.500 C 334.919 338.995,334.808 346.803,334.805 355.851 L 334.800 372.302 333.900 372.907 C 332.729 373.694,335.705 374.255,338.682 373.809 C 340.522 373.533,340.545 373.512,339.716 372.863 C 338.304 371.758,338.004 369.479,337.734 357.762 C 337.521 348.544,337.571 346.465,338.015 346.191 C 338.403 345.951,340.254 347.656,344.572 352.228 C 358.780 367.274,366.707 374.721,367.371 373.648 C 367.465 373.495,367.672 365.775,367.832 356.492 C 368.100 340.875,368.176 339.565,368.851 338.954 C 369.983 337.930,369.388 337.600,366.409 337.600 C 362.612 337.600,362.022 337.869,363.401 338.968 C 365.177 340.384,366.291 366.000,364.577 366.000 C 363.755 366.000,360.297 362.495,339.223 340.300 C 336.534 337.468,335.454 337.002,335.052 338.500 M307.704 339.941 C 315.845 343.506,319.384 356.428,314.781 365.778 C 309.705 376.090,294.140 374.760,289.276 363.600 C 285.775 355.566,287.411 345.635,292.930 341.427 C 296.507 338.698,303.303 338.015,307.704 339.941 M199.506 347.700 C 199.980 349.075,200.637 350.920,200.965 351.800 C 201.293 352.680,201.930 354.387,202.381 355.594 C 203.633 358.948,203.817 358.800,198.387 358.800 C 192.519 358.800,192.632 358.958,194.598 353.505 C 195.412 351.247,196.258 348.770,196.478 348.000 C 196.866 346.647,197.850 345.200,198.383 345.200 C 198.526 345.200,199.031 346.325,199.506 347.700 " stroke="none" fill="#243f73" fill-rule="evenodd"></path><path id="path2" d="M204.800 106.235 C 204.250 106.336,202.188 106.700,200.218 107.044 C 169.691 112.379,148.153 137.790,148.212 168.400 C 148.231 178.443,152.296 192.921,159.357 208.102 C 160.151 209.808,160.800 211.294,160.800 211.404 C 160.800 211.514,161.260 212.548,161.823 213.702 C 162.386 214.856,163.574 217.510,164.464 219.600 C 165.977 223.155,180.110 251.724,180.788 252.600 C 180.959 252.820,183.392 257.140,186.195 262.200 C 188.998 267.260,191.873 272.390,192.583 273.600 C 193.293 274.810,195.191 278.140,196.800 281.000 C 204.985 295.546,209.736 303.200,210.578 303.200 C 211.371 303.200,222.131 285.586,228.903 273.200 C 229.565 271.990,230.425 270.460,230.814 269.800 C 232.061 267.684,233.249 265.507,235.724 260.800 C 237.055 258.270,238.528 255.570,238.999 254.800 C 239.470 254.030,240.904 251.330,242.186 248.800 C 243.469 246.270,245.367 242.580,246.405 240.600 C 262.975 208.987,272.278 184.702,273.035 171.081 C 273.766 157.912,269.298 142.335,262.082 132.893 C 250.984 118.374,239.367 110.954,221.800 107.164 C 218.321 106.413,207.160 105.803,204.800 106.235 M215.400 133.374 C 240.415 137.264,253.651 162.873,242.311 185.440 C 225.755 218.386,175.000 205.990,175.000 169.000 C 175.000 146.918,194.112 130.064,215.400 133.374 " stroke="none" fill="#f44c2c" fill-rule="evenodd"></path><path id="path3" d="M162.155 20.974 C 161.897 21.647,162.033 24.372,162.801 33.891 C 163.414 41.494,163.627 41.023,159.425 41.364 C 150.576 42.082,145.864 44.963,143.019 51.395 C 142.013 53.670,141.997 53.684,140.503 53.500 C 138.192 53.216,133.204 52.392,131.200 51.963 C 127.772 51.229,115.968 51.315,114.557 52.084 C 112.200 53.369,112.130 64.196,114.457 67.518 C 117.355 71.654,123.928 77.282,127.690 78.847 C 135.228 81.984,138.426 84.202,142.194 88.912 C 149.236 97.714,150.867 104.677,150.776 125.552 C 150.708 141.254,150.852 141.669,154.181 135.400 C 155.392 133.120,157.710 129.800,158.789 128.800 C 158.907 128.690,159.541 127.880,160.196 127.000 C 168.934 115.268,186.238 105.704,201.841 103.984 C 209.162 103.176,209.722 102.274,213.159 85.747 C 213.623 83.519,214.452 80.678,215.001 79.436 C 216.370 76.340,216.522 76.747,211.530 70.127 C 209.072 66.867,205.463 62.077,203.510 59.481 C 201.558 56.886,199.700 54.456,199.381 54.081 C 199.063 53.707,196.539 50.340,193.773 46.600 C 191.008 42.860,187.632 38.297,186.272 36.460 C 175.331 21.677,173.978 20.169,173.655 22.400 C 173.516 23.359,174.470 29.424,175.234 32.446 C 175.435 33.242,175.600 34.485,175.600 35.208 L 175.600 36.524 174.738 35.762 C 173.879 35.002,173.305 34.269,166.705 25.498 C 162.885 20.421,162.510 20.048,162.155 20.974 M168.334 29.600 C 172.698 35.535,173.808 37.009,174.328 37.556 C 174.618 37.862,175.133 38.537,175.474 39.056 C 176.211 40.181,176.644 40.244,177.139 39.300 C 177.500 38.612,177.270 36.780,175.819 28.800 C 174.938 23.953,174.982 23.549,176.207 25.209 C 176.761 25.960,177.559 27.030,177.980 27.587 C 178.402 28.144,180.486 30.940,182.612 33.800 C 184.738 36.660,186.789 39.371,187.170 39.824 C 187.550 40.277,188.650 41.717,189.613 43.024 C 190.576 44.331,191.777 45.848,192.282 46.396 C 192.787 46.944,193.200 47.504,193.200 47.642 C 193.200 47.779,193.751 48.501,194.425 49.246 C 195.098 49.991,196.115 51.320,196.685 52.200 C 197.255 53.080,198.144 54.196,198.661 54.681 C 199.177 55.165,199.600 55.738,199.600 55.952 C 199.600 56.167,199.832 56.581,200.117 56.871 C 200.401 57.162,203.016 60.640,205.929 64.600 C 208.842 68.560,211.929 72.700,212.790 73.800 C 214.640 76.163,214.738 77.149,213.400 79.923 C 212.850 81.063,212.400 82.549,212.400 83.224 C 212.400 83.900,212.219 84.791,211.997 85.205 C 211.776 85.619,211.429 87.002,211.227 88.279 C 210.577 92.379,209.057 97.743,207.962 99.800 C 206.761 102.056,206.607 102.116,200.226 102.803 C 198.261 103.014,196.470 103.370,196.246 103.594 C 196.023 103.817,195.409 104.000,194.882 104.000 C 193.765 104.000,189.717 105.060,188.705 105.617 C 188.323 105.828,187.841 106.000,187.633 106.000 C 187.172 106.000,182.531 108.074,179.800 109.501 C 175.626 111.681,172.562 113.703,170.247 115.806 C 170.001 116.029,168.990 116.837,168.000 117.602 C 165.498 119.536,161.197 123.943,158.076 127.773 C 156.629 129.548,155.336 131.090,155.202 131.200 C 154.906 131.443,153.476 133.779,152.625 135.410 C 152.053 136.508,152.003 135.578,151.985 123.400 C 151.974 116.140,151.790 109.390,151.576 108.400 C 151.362 107.410,151.026 105.700,150.830 104.600 C 149.135 95.102,144.139 87.422,135.837 81.553 C 134.318 80.479,132.830 79.600,132.532 79.600 C 132.233 79.600,131.677 79.429,131.295 79.219 C 130.913 79.010,129.880 78.544,129.000 78.184 C 125.137 76.602,122.776 74.857,118.800 70.646 C 114.952 66.570,113.970 64.149,114.023 58.875 C 114.096 51.635,114.444 51.493,129.000 52.756 C 131.860 53.005,134.613 53.386,135.119 53.604 C 138.552 55.084,144.400 53.747,144.400 51.483 C 144.400 47.342,152.057 43.022,160.400 42.457 L 164.200 42.200 164.132 38.800 C 164.094 36.930,163.892 32.790,163.682 29.600 C 163.236 22.807,163.281 22.635,164.897 24.885 C 165.574 25.828,167.121 27.950,168.334 29.600 M259.800 42.812 C 259.360 42.981,258.388 43.759,257.640 44.541 C 256.385 45.852,256.216 45.917,255.451 45.381 C 253.590 44.077,252.229 44.544,248.000 47.934 C 246.790 48.904,245.088 50.261,244.217 50.949 C 242.080 52.638,237.363 56.672,236.023 57.957 C 235.426 58.531,234.051 59.717,232.968 60.594 C 224.220 67.679,218.177 76.372,216.281 84.600 C 215.926 86.140,215.354 88.660,215.011 90.200 C 214.155 94.036,213.663 95.747,212.510 98.910 C 211.042 102.937,211.384 103.290,217.200 103.759 C 233.756 105.095,250.972 114.087,260.827 126.547 C 262.022 128.058,263.302 129.645,263.671 130.074 C 264.039 130.503,265.083 132.082,265.989 133.582 C 269.560 139.492,270.554 138.445,268.629 130.800 C 268.269 129.370,267.818 127.570,267.627 126.800 C 267.166 124.947,266.398 122.790,265.848 121.800 C 265.170 120.582,265.044 108.850,265.695 107.608 C 266.567 105.946,269.236 104.662,276.097 102.603 C 279.993 101.434,281.731 100.228,282.388 98.235 C 282.631 97.499,283.202 96.560,283.656 96.149 C 284.773 95.138,285.600 93.460,285.600 92.204 C 285.600 91.634,285.960 90.462,286.400 89.600 C 287.763 86.929,287.503 85.772,284.700 82.031 C 283.325 80.196,281.983 78.403,281.717 78.046 C 281.452 77.690,280.935 76.230,280.569 74.802 C 279.954 72.401,278.929 69.940,277.330 67.027 C 275.137 63.030,267.377 57.314,263.248 56.654 C 259.582 56.068,259.264 54.957,261.216 49.562 C 263.049 44.494,262.480 41.781,259.800 42.812 M261.600 44.648 C 261.600 45.178,260.970 47.534,260.200 49.884 C 258.338 55.566,258.601 56.413,262.448 57.132 C 270.240 58.588,278.377 67.379,279.940 76.029 C 280.192 77.423,280.952 78.723,283.135 81.490 C 286.255 85.446,286.711 87.065,285.411 89.578 C 285.088 90.204,284.698 91.500,284.545 92.458 C 284.360 93.621,283.887 94.556,283.123 95.271 C 282.494 95.859,281.743 97.021,281.455 97.853 C 280.737 99.927,279.695 100.575,274.600 102.113 C 265.222 104.944,264.204 106.107,264.202 114.000 C 264.200 118.604,264.306 119.317,265.535 123.000 C 269.030 133.477,269.380 137.263,266.429 132.700 C 255.472 115.752,237.938 105.016,217.600 102.802 C 212.351 102.231,212.419 102.306,213.724 98.508 C 214.312 96.799,215.516 92.340,216.400 88.600 C 219.787 74.277,224.852 67.499,243.000 52.999 C 244.100 52.120,245.360 51.101,245.800 50.734 C 250.794 46.568,254.800 44.440,254.800 45.953 C 254.800 47.073,256.555 46.612,258.451 44.994 C 260.597 43.162,261.600 43.052,261.600 44.648 M149.976 49.713 C 146.874 52.135,146.954 52.031,147.731 52.599 C 149.587 53.956,160.000 53.641,160.000 52.228 C 160.000 50.079,152.059 48.086,149.976 49.713 M155.984 50.442 C 159.778 51.579,158.770 52.400,153.580 52.400 C 148.477 52.400,148.154 52.226,150.544 50.769 C 151.963 49.903,153.814 49.792,155.984 50.442 M264.889 70.223 C 263.739 71.028,263.756 72.431,264.930 73.534 C 265.972 74.513,266.400 74.328,266.400 72.899 C 266.400 72.190,266.722 71.809,267.600 71.478 C 269.021 70.941,269.159 70.190,267.900 69.852 C 266.488 69.474,265.846 69.553,264.889 70.223 M266.000 71.600 C 266.000 72.380,265.576 72.642,265.094 72.161 C 264.774 71.840,265.193 70.800,265.643 70.800 C 265.839 70.800,266.000 71.160,266.000 71.600 M209.700 105.876 C 210.085 105.976,210.715 105.976,211.100 105.876 C 211.485 105.775,211.170 105.693,210.400 105.693 C 209.630 105.693,209.315 105.775,209.700 105.876 M203.700 106.276 C 204.085 106.376,204.715 106.376,205.100 106.276 C 205.485 106.175,205.170 106.093,204.400 106.093 C 203.630 106.093,203.315 106.175,203.700 106.276 M215.905 106.283 C 216.402 106.379,217.122 106.375,217.505 106.275 C 217.887 106.175,217.480 106.096,216.600 106.101 C 215.720 106.105,215.407 106.187,215.905 106.283 M184.700 111.227 C 183.875 111.663,183.200 112.108,183.200 112.218 C 183.200 112.396,186.359 110.919,186.767 110.551 C 187.227 110.134,186.025 110.528,184.700 111.227 M234.433 110.551 C 234.842 110.921,238.000 112.395,238.000 112.216 C 238.000 111.989,234.981 110.400,234.549 110.400 C 234.394 110.400,234.342 110.468,234.433 110.551 M246.000 116.946 C 246.000 117.056,246.540 117.530,247.200 118.000 C 247.860 118.470,248.400 118.764,248.400 118.654 C 248.400 118.544,247.860 118.070,247.200 117.600 C 246.540 117.130,246.000 116.836,246.000 116.946 M166.400 123.800 C 165.428 124.790,164.723 125.600,164.833 125.600 C 164.943 125.600,165.828 124.790,166.800 123.800 C 167.772 122.810,168.477 122.000,168.367 122.000 C 168.257 122.000,167.372 122.810,166.400 123.800 M257.604 127.604 C 258.971 129.146,260.294 130.532,260.545 130.684 C 260.795 130.836,259.763 129.574,258.251 127.880 C 256.739 126.186,255.415 124.800,255.310 124.800 C 255.204 124.800,256.236 126.062,257.604 127.604 M162.778 127.900 L 161.400 129.400 162.900 128.022 C 163.725 127.263,164.400 126.588,164.400 126.522 C 164.400 126.216,164.062 126.504,162.778 127.900 M160.744 130.300 C 159.593 131.689,159.106 132.400,159.304 132.400 C 159.414 132.400,159.986 131.770,160.573 131.000 C 161.663 129.571,161.795 129.032,160.744 130.300 M209.100 133.089 C 209.815 133.178,210.985 133.178,211.700 133.089 C 212.415 133.001,211.830 132.928,210.400 132.928 C 208.970 132.928,208.385 133.001,209.100 133.089 M194.900 136.446 C 193.095 137.602,193.263 137.868,195.100 136.763 C 196.960 135.645,197.018 135.598,196.567 135.607 C 196.365 135.610,195.615 135.988,194.900 136.446 M224.433 135.731 C 225.113 136.263,227.600 137.625,227.600 137.465 C 227.600 137.206,225.005 135.600,224.586 135.600 C 224.410 135.600,224.342 135.659,224.433 135.731 M155.400 138.400 C 155.059 139.060,154.869 139.600,154.979 139.600 C 155.089 139.600,155.459 139.060,155.800 138.400 C 156.141 137.740,156.331 137.200,156.221 137.200 C 156.111 137.200,155.741 137.740,155.400 138.400 M154.065 141.017 C 153.395 142.488,153.523 142.802,154.247 141.465 C 154.586 140.840,154.788 140.254,154.696 140.163 C 154.605 140.071,154.321 140.456,154.065 141.017 M185.800 143.044 L 184.200 144.476 185.900 143.204 C 187.363 142.110,187.891 141.583,187.500 141.606 C 187.445 141.609,186.680 142.256,185.800 143.044 M152.865 143.817 C 152.195 145.288,152.323 145.602,153.047 144.265 C 153.386 143.640,153.588 143.054,153.496 142.963 C 153.405 142.871,153.121 143.256,152.865 143.817 M182.975 146.100 L 181.800 147.400 183.100 146.225 C 183.815 145.579,184.400 144.994,184.400 144.925 C 184.400 144.616,184.070 144.888,182.975 146.100 M181.107 148.300 C 180.394 149.109,177.890 154.000,178.188 154.000 C 178.298 154.000,178.951 152.875,179.639 151.500 C 180.327 150.125,181.168 148.685,181.507 148.300 C 181.846 147.915,182.034 147.600,181.924 147.600 C 181.814 147.600,181.446 147.915,181.107 148.300 M241.000 150.400 C 241.341 151.060,241.711 151.600,241.821 151.600 C 241.931 151.600,241.741 151.060,241.400 150.400 C 241.059 149.740,240.689 149.200,240.579 149.200 C 240.469 149.200,240.659 149.740,241.000 150.400 M272.493 158.000 C 272.493 158.770,272.575 159.085,272.676 158.700 C 272.776 158.315,272.776 157.685,272.676 157.300 C 272.575 156.915,272.493 157.230,272.493 158.000 M148.101 162.200 C 148.105 163.080,148.187 163.393,148.283 162.895 C 148.379 162.398,148.375 161.678,148.275 161.295 C 148.175 160.913,148.096 161.320,148.101 162.200 M272.893 162.000 C 272.893 162.770,272.975 163.085,273.076 162.700 C 273.176 162.315,273.176 161.685,273.076 161.300 C 272.975 160.915,272.893 161.230,272.893 162.000 M245.701 163.000 C 245.705 163.880,245.787 164.193,245.883 163.695 C 245.979 163.198,245.975 162.478,245.875 162.095 C 245.775 161.713,245.696 162.120,245.701 163.000 M174.893 164.800 C 174.893 165.570,174.975 165.885,175.076 165.500 C 175.176 165.115,175.176 164.485,175.076 164.100 C 174.975 163.715,174.893 164.030,174.893 164.800 M273.342 167.800 C 273.341 169.780,273.408 170.640,273.492 169.712 C 273.576 168.784,273.577 167.164,273.495 166.112 C 273.412 165.060,273.343 165.820,273.342 167.800 M147.742 168.200 C 147.741 170.180,147.808 171.040,147.892 170.112 C 147.976 169.184,147.977 167.564,147.895 166.512 C 147.812 165.460,147.743 166.220,147.742 168.200 M246.148 168.800 C 246.148 171.110,246.214 172.055,246.295 170.900 C 246.376 169.745,246.376 167.855,246.295 166.700 C 246.214 165.545,246.148 166.490,246.148 168.800 M174.901 173.000 C 174.905 173.880,174.987 174.193,175.083 173.695 C 175.179 173.198,175.175 172.478,175.075 172.095 C 174.975 171.713,174.896 172.120,174.901 173.000 M272.901 173.400 C 272.905 174.280,272.987 174.593,273.083 174.095 C 273.179 173.598,273.175 172.878,273.075 172.495 C 272.975 172.113,272.896 172.520,272.901 173.400 M148.093 174.000 C 148.093 174.770,148.175 175.085,148.276 174.700 C 148.376 174.315,148.376 173.685,148.276 173.300 C 148.175 172.915,148.093 173.230,148.093 174.000 M245.693 174.800 C 245.693 175.570,245.775 175.885,245.876 175.500 C 245.976 175.115,245.976 174.485,245.876 174.100 C 245.775 173.715,245.693 174.030,245.693 174.800 M150.463 185.400 C 150.462 185.620,150.703 186.430,151.000 187.200 C 151.297 187.970,151.545 188.330,151.552 188.000 C 151.558 187.670,151.317 186.860,151.014 186.200 C 150.712 185.540,150.464 185.180,150.463 185.400 M179.949 187.500 C 180.370 188.325,181.139 189.359,181.657 189.797 L 182.600 190.594 181.747 189.597 C 181.278 189.049,180.598 188.015,180.237 187.300 C 179.875 186.585,179.490 186.000,179.382 186.000 C 179.273 186.000,179.528 186.675,179.949 187.500 M240.800 187.600 C 240.351 188.480,240.074 189.200,240.184 189.200 C 240.294 189.200,240.751 188.480,241.200 187.600 C 241.649 186.720,241.926 186.000,241.816 186.000 C 241.706 186.000,241.249 186.720,240.800 187.600 M152.448 191.200 C 152.442 191.530,152.683 192.340,152.986 193.000 C 153.693 194.545,153.703 193.826,153.000 192.000 C 152.703 191.230,152.455 190.870,152.448 191.200 M235.381 194.500 L 233.800 196.200 235.500 194.619 C 237.081 193.148,237.384 192.800,237.081 192.800 C 237.016 192.800,236.251 193.565,235.381 194.500 M189.982 198.178 C 190.290 198.549,191.095 199.134,191.771 199.477 C 193.295 200.252,193.052 199.967,191.000 198.574 C 190.132 197.985,189.674 197.807,189.982 198.178 M225.600 201.200 C 224.830 201.622,224.344 201.974,224.520 201.983 C 224.944 202.005,227.200 200.832,227.200 200.590 C 227.200 200.328,227.177 200.337,225.600 201.200 M264.465 202.217 C 263.795 203.688,263.923 204.002,264.647 202.665 C 264.986 202.040,265.188 201.454,265.096 201.363 C 265.005 201.271,264.721 201.656,264.465 202.217 M205.300 204.276 C 205.685 204.376,206.315 204.376,206.700 204.276 C 207.085 204.175,206.770 204.093,206.000 204.093 C 205.230 204.093,204.915 204.175,205.300 204.276 M214.500 204.276 C 214.885 204.376,215.515 204.376,215.900 204.276 C 216.285 204.175,215.970 204.093,215.200 204.093 C 214.430 204.093,214.115 204.175,214.500 204.276 M209.507 204.690 C 210.226 204.779,211.306 204.777,211.907 204.686 C 212.508 204.595,211.920 204.522,210.600 204.524 C 209.280 204.526,208.788 204.601,209.507 204.690 M261.265 209.417 C 260.595 210.888,260.723 211.202,261.447 209.865 C 261.786 209.240,261.988 208.654,261.896 208.563 C 261.805 208.471,261.521 208.856,261.265 209.417 M258.065 216.617 C 257.395 218.088,257.523 218.402,258.247 217.065 C 258.586 216.440,258.788 215.854,258.696 215.763 C 258.605 215.671,258.321 216.056,258.065 216.617 M254.065 225.417 C 253.395 226.888,253.523 227.202,254.247 225.865 C 254.586 225.240,254.788 224.654,254.696 224.563 C 254.605 224.471,254.321 224.856,254.065 225.417 M168.883 229.787 C 169.585 231.210,170.225 232.308,170.306 232.228 C 170.485 232.049,168.066 227.200,167.798 227.200 C 167.693 227.200,168.182 228.364,168.883 229.787 M252.000 229.600 C 251.334 230.920,250.878 232.000,250.988 232.000 C 251.098 232.000,251.734 230.920,252.400 229.600 C 253.066 228.280,253.522 227.200,253.412 227.200 C 253.302 227.200,252.666 228.280,252.000 229.600 M172.685 237.384 C 173.719 239.466,174.629 241.104,174.707 241.026 C 174.885 240.849,171.265 233.600,170.999 233.600 C 170.892 233.600,171.651 235.303,172.685 237.384 M245.980 241.239 C 245.520 242.140,245.213 242.946,245.297 243.030 C 245.381 243.114,245.841 242.376,246.319 241.391 C 247.409 239.147,247.115 239.015,245.980 241.239 M243.200 246.800 C 242.315 248.560,241.681 250.000,241.791 250.000 C 241.901 250.000,242.715 248.560,243.600 246.800 C 244.485 245.040,245.119 243.600,245.009 243.600 C 244.899 243.600,244.085 245.040,243.200 246.800 M177.600 247.200 C 178.485 248.960,179.299 250.400,179.409 250.400 C 179.519 250.400,178.885 248.960,178.000 247.200 C 177.115 245.440,176.301 244.000,176.191 244.000 C 176.081 244.000,176.715 245.440,177.600 247.200 M180.006 251.677 C 179.998 252.039,181.628 254.800,181.850 254.800 C 181.944 254.800,181.753 254.305,181.425 253.700 C 180.610 252.195,180.013 251.344,180.006 251.677 M182.600 256.400 C 182.941 257.060,183.311 257.600,183.421 257.600 C 183.531 257.600,183.341 257.060,183.000 256.400 C 182.659 255.740,182.289 255.200,182.179 255.200 C 182.069 255.200,182.259 255.740,182.600 256.400 M237.600 257.200 C 237.151 258.080,236.874 258.800,236.984 258.800 C 237.094 258.800,237.551 258.080,238.000 257.200 C 238.449 256.320,238.726 255.600,238.616 255.600 C 238.506 255.600,238.049 256.320,237.600 257.200 M184.200 259.200 C 184.541 259.860,184.911 260.400,185.021 260.400 C 185.131 260.400,184.941 259.860,184.600 259.200 C 184.259 258.540,183.889 258.000,183.779 258.000 C 183.669 258.000,183.859 258.540,184.200 259.200 M188.200 266.400 C 188.541 267.060,188.911 267.600,189.021 267.600 C 189.131 267.600,188.941 267.060,188.600 266.400 C 188.259 265.740,187.889 265.200,187.779 265.200 C 187.669 265.200,187.859 265.740,188.200 266.400 M230.000 271.200 C 229.551 272.080,229.274 272.800,229.384 272.800 C 229.494 272.800,229.951 272.080,230.400 271.200 C 230.849 270.320,231.126 269.600,231.016 269.600 C 230.906 269.600,230.449 270.320,230.000 271.200 M195.400 279.200 C 195.741 279.860,196.111 280.400,196.221 280.400 C 196.331 280.400,196.141 279.860,195.800 279.200 C 195.459 278.540,195.089 278.000,194.979 278.000 C 194.869 278.000,195.059 278.540,195.400 279.200 M225.000 280.000 C 224.659 280.660,224.469 281.200,224.579 281.200 C 224.689 281.200,225.059 280.660,225.400 280.000 C 225.741 279.340,225.931 278.800,225.821 278.800 C 225.711 278.800,225.341 279.340,225.000 280.000 M221.800 285.600 C 221.459 286.260,221.269 286.800,221.379 286.800 C 221.489 286.800,221.859 286.260,222.200 285.600 C 222.541 284.940,222.731 284.400,222.621 284.400 C 222.511 284.400,222.141 284.940,221.800 285.600 M209.044 302.300 C 209.752 303.564,210.902 304.006,211.397 303.205 C 211.542 302.970,211.363 302.916,210.957 303.072 C 210.488 303.252,209.964 302.967,209.294 302.167 L 208.315 301.000 209.044 302.300 M24.155 330.706 C 23.267 331.292,24.262 332.494,26.171 333.144 C 28.262 333.855,29.106 334.979,30.572 339.000 C 30.973 340.100,31.530 341.540,31.809 342.200 C 32.089 342.860,32.886 344.840,33.580 346.600 C 34.274 348.360,34.995 350.160,35.181 350.600 C 35.367 351.040,35.744 352.030,36.020 352.800 C 36.295 353.570,36.740 354.740,37.010 355.400 C 37.758 357.235,40.038 362.875,40.486 364.000 C 40.705 364.550,41.113 365.540,41.392 366.200 C 41.671 366.860,42.219 368.210,42.609 369.200 C 44.490 373.972,44.968 374.827,45.882 375.056 C 47.092 375.360,47.883 374.664,48.877 372.422 C 50.406 368.973,50.743 368.195,51.397 366.600 C 52.354 364.269,52.624 363.646,53.768 361.125 C 54.335 359.873,54.800 358.641,54.800 358.386 C 54.800 358.132,55.054 357.446,55.364 356.862 C 55.674 356.278,56.227 355.080,56.591 354.200 C 57.919 350.996,58.093 350.579,58.601 349.400 C 58.886 348.740,59.872 346.310,60.793 344.000 C 61.713 341.690,62.722 339.322,63.033 338.738 C 63.345 338.154,63.600 337.487,63.600 337.255 C 63.600 335.957,65.859 333.188,67.108 332.953 C 68.489 332.694,69.550 331.390,68.906 330.746 C 68.033 329.873,57.010 330.529,56.877 331.461 C 56.781 332.139,57.058 332.423,58.177 332.792 C 59.998 333.393,59.984 333.891,58.006 339.000 C 57.835 339.440,57.416 340.520,57.075 341.400 C 56.733 342.280,55.983 344.260,55.408 345.800 C 54.165 349.128,53.978 349.602,50.776 357.600 C 49.410 361.010,48.168 363.940,48.016 364.111 C 47.600 364.577,46.700 362.582,44.177 355.600 C 43.581 353.950,42.870 352.060,42.598 351.400 C 42.326 350.740,41.617 348.850,41.022 347.200 C 39.902 344.093,39.683 343.516,37.629 338.251 C 36.127 334.401,36.070 333.306,37.345 332.821 C 38.481 332.389,39.036 331.196,38.314 330.738 C 37.674 330.333,24.765 330.303,24.155 330.706 M36.592 331.587 C 36.723 331.800,36.464 332.203,36.016 332.483 C 34.914 333.171,35.335 335.573,37.369 340.200 C 37.659 340.860,38.353 342.660,38.910 344.200 C 45.565 362.579,47.227 366.407,48.205 365.596 C 48.724 365.165,51.503 358.495,54.244 351.100 C 54.550 350.275,55.092 348.835,55.448 347.900 C 55.804 346.965,56.233 345.840,56.400 345.400 C 57.649 342.115,58.152 340.832,58.640 339.686 C 58.948 338.964,59.200 338.030,59.200 337.610 C 59.200 337.190,59.380 336.736,59.600 336.600 C 60.281 336.179,60.101 332.400,59.400 332.400 C 59.070 332.400,58.800 332.124,58.800 331.786 C 58.800 331.003,66.830 331.084,67.091 331.869 C 67.176 332.127,66.837 332.397,66.336 332.469 C 64.910 332.674,63.594 335.006,60.392 343.000 C 59.592 344.997,54.247 357.929,53.770 359.023 C 53.476 359.695,52.346 362.305,51.258 364.823 C 46.246 376.422,46.459 376.264,44.027 370.200 C 43.321 368.440,42.508 366.460,42.221 365.800 C 41.933 365.140,41.143 363.160,40.466 361.400 C 32.214 339.957,29.025 333.095,27.047 332.528 C 26.395 332.341,25.789 331.966,25.698 331.694 C 25.494 331.081,36.214 330.975,36.592 331.587 M158.400 336.780 C 150.523 337.698,146.216 341.207,142.252 349.936 C 141.718 351.110,141.749 360.539,142.290 361.722 C 142.511 362.205,143.109 363.497,143.621 364.594 C 146.832 371.484,154.478 375.342,165.000 375.380 C 173.849 375.412,175.700 374.539,176.433 369.990 C 176.657 368.598,176.930 367.314,177.039 367.137 C 177.357 366.622,176.428 365.200,175.772 365.200 C 175.440 365.200,174.790 366.061,174.318 367.125 C 172.622 370.945,164.672 373.075,159.961 370.971 C 155.079 368.790,153.816 367.945,151.663 365.411 C 147.280 360.255,147.057 349.291,151.226 343.980 C 156.095 337.777,171.863 338.351,173.598 344.793 C 174.110 346.696,174.946 347.783,175.680 347.502 C 176.292 347.266,177.024 339.849,176.555 338.627 C 175.975 337.115,165.058 336.004,158.400 336.780 M197.136 338.300 C 195.856 341.151,190.802 353.856,188.186 360.800 C 187.564 362.450,186.908 363.971,186.728 364.180 C 186.547 364.389,186.400 364.790,186.400 365.071 C 186.400 365.841,183.723 371.402,183.123 371.879 C 182.836 372.108,181.925 372.417,181.100 372.566 C 179.574 372.841,179.216 373.456,180.080 374.320 C 180.987 375.227,190.284 374.964,190.791 374.017 C 191.132 373.380,191.052 373.149,190.369 372.783 C 188.972 372.036,191.086 362.683,192.914 361.521 C 193.533 361.127,202.860 361.114,203.421 361.506 C 203.919 361.854,204.921 364.031,206.593 368.400 C 206.972 369.390,207.444 370.513,207.641 370.895 C 207.838 371.277,208.000 372.136,208.000 372.804 C 208.000 374.460,209.059 374.800,214.212 374.800 C 217.933 374.800,218.416 374.717,218.791 374.017 C 219.252 373.155,218.369 372.400,216.901 372.400 C 215.321 372.400,213.632 369.845,211.219 363.800 C 210.516 362.040,209.684 360.122,209.370 359.538 C 209.057 358.954,208.800 358.284,208.800 358.049 C 208.800 357.814,208.336 356.582,207.770 355.311 C 205.954 351.238,205.695 350.626,205.183 349.200 C 204.638 347.683,203.843 345.698,203.021 343.800 C 202.735 343.140,202.167 341.790,201.760 340.800 C 199.724 335.850,198.527 335.203,197.136 338.300 M298.200 336.676 C 297.100 336.771,296.029 337.017,295.820 337.224 C 295.611 337.431,295.086 337.600,294.652 337.600 C 293.239 337.600,289.448 340.027,287.200 342.370 C 285.296 344.355,284.075 346.321,282.252 350.336 C 282.018 350.850,281.841 353.492,281.857 356.208 L 281.888 361.144 283.568 364.536 C 292.312 382.186,319.421 377.718,322.391 358.138 C 323.817 348.741,319.261 341.169,309.952 337.461 C 308.413 336.848,301.537 336.389,298.200 336.676 M73.745 337.399 C 73.475 338.103,74.251 339.200,75.020 339.200 C 76.752 339.200,76.800 339.655,76.794 355.929 C 76.788 371.992,76.777 372.112,75.300 372.573 C 72.749 373.369,74.866 374.917,78.291 374.759 C 79.781 374.691,83.880 374.778,87.400 374.953 C 94.669 375.313,95.563 375.129,96.539 373.073 C 98.011 369.970,96.859 365.587,95.306 368.386 C 93.678 371.321,93.560 371.377,88.942 371.389 C 83.131 371.404,83.198 371.497,83.206 363.456 C 83.214 356.124,83.142 356.277,86.440 356.590 C 92.351 357.151,92.340 357.148,92.475 358.321 C 92.784 360.997,94.574 359.697,94.846 356.600 C 95.212 352.428,94.920 351.922,92.559 352.632 C 89.854 353.447,83.763 353.403,83.443 352.567 C 83.062 351.576,83.171 341.466,83.569 340.837 C 83.854 340.386,84.709 340.325,87.862 340.527 C 91.998 340.793,92.411 340.993,93.835 343.428 C 94.611 344.756,95.799 342.332,95.799 339.418 L 95.800 337.000 84.890 336.894 C 75.404 336.801,73.949 336.867,73.745 337.399 M104.267 337.067 C 104.120 337.213,104.000 337.923,104.000 338.643 C 104.000 339.363,103.820 340.064,103.600 340.200 C 103.380 340.336,103.200 341.072,103.200 341.836 C 103.200 343.841,104.097 343.967,106.018 342.231 L 107.631 340.774 112.115 340.887 L 116.600 341.000 116.705 355.917 C 116.810 370.821,116.688 372.400,115.435 372.400 C 114.478 372.400,113.955 373.386,114.510 374.144 C 115.265 375.177,126.296 374.950,126.957 373.889 C 127.521 372.984,126.738 372.415,124.918 372.406 C 123.155 372.398,123.149 372.338,123.285 355.400 L 123.400 341.000 127.178 340.884 C 131.243 340.759,133.020 341.204,133.414 342.443 C 133.742 343.478,135.149 344.211,135.717 343.643 C 136.345 343.015,136.572 338.669,136.030 337.656 C 135.571 336.798,105.101 336.233,104.267 337.067 M220.503 337.295 C 220.282 337.573,220.005 338.340,219.888 339.000 C 219.771 339.660,219.548 340.856,219.392 341.659 C 218.955 343.908,220.395 344.199,222.202 342.226 L 223.532 340.774 228.266 340.887 L 233.000 341.000 233.105 355.564 C 233.216 370.965,233.088 372.244,231.409 372.484 C 230.844 372.565,230.600 372.901,230.600 373.600 L 230.600 374.600 236.795 374.600 C 242.539 374.600,243.000 374.545,243.134 373.848 C 243.309 372.938,242.575 372.414,241.114 372.406 C 239.240 372.396,239.183 371.880,239.295 355.917 L 239.400 341.000 243.000 340.882 C 247.507 340.735,248.042 340.874,249.691 342.622 C 251.818 344.876,252.459 344.296,252.315 340.251 L 252.200 337.000 236.553 336.895 C 224.337 336.814,220.817 336.901,220.503 337.295 M260.598 337.204 C 260.168 337.899,260.774 339.060,261.816 339.534 C 263.473 340.290,263.600 341.387,263.600 354.996 C 263.600 368.338,263.279 371.861,262.021 372.305 C 260.740 372.757,260.399 373.251,260.822 374.042 C 261.475 375.262,272.561 375.194,273.218 373.966 C 273.780 372.917,273.635 372.782,271.667 372.518 C 269.525 372.231,269.612 372.943,269.605 355.529 C 269.600 339.909,269.671 339.200,271.241 339.200 C 271.857 339.200,272.367 337.444,271.850 337.106 C 271.152 336.650,260.885 336.739,260.598 337.204 M334.667 337.067 C 334.520 337.213,334.399 344.548,334.398 353.367 C 334.395 371.032,334.277 372.165,332.395 372.541 C 331.148 372.790,330.862 373.502,331.680 374.320 C 332.589 375.229,342.284 374.964,342.791 374.017 C 343.280 373.104,342.349 372.400,340.653 372.400 C 339.369 372.400,339.323 372.213,338.838 365.000 C 338.075 353.665,337.906 349.338,338.179 348.096 L 338.452 346.852 341.125 349.726 C 351.436 360.812,365.087 374.356,366.242 374.646 C 367.983 375.083,368.395 374.612,368.457 372.113 C 368.488 370.841,368.547 369.440,368.588 369.000 C 368.629 368.560,368.694 361.768,368.732 353.908 L 368.800 339.615 369.811 339.362 C 370.959 339.073,371.875 337.715,371.305 337.145 C 370.458 336.298,360.211 336.925,360.081 337.832 C 359.989 338.478,360.323 338.806,361.578 339.299 C 363.876 340.201,363.967 340.674,364.263 353.163 C 364.561 365.775,364.571 365.739,361.776 362.694 C 360.719 361.542,356.042 356.640,351.383 351.800 C 346.724 346.960,341.569 341.605,339.927 339.900 C 337.079 336.941,335.593 336.141,334.667 337.067 M135.100 337.790 C 135.669 338.000,135.807 341.825,135.258 342.164 C 135.070 342.280,134.312 341.836,133.573 341.176 L 132.230 339.977 127.415 340.088 L 122.600 340.200 122.600 356.123 L 122.600 372.046 123.551 372.763 L 124.501 373.480 123.201 373.740 C 121.549 374.070,117.692 374.067,116.449 373.735 L 115.498 373.480 116.404 372.797 C 117.010 372.340,117.416 371.467,117.631 370.157 C 118.119 367.185,118.080 341.697,117.586 340.774 C 116.860 339.418,107.933 339.628,105.840 341.050 L 104.294 342.101 104.584 340.150 C 104.744 339.078,105.023 338.020,105.203 337.800 C 105.528 337.405,134.029 337.395,135.100 337.790 M172.391 337.825 C 176.039 338.586,175.654 338.041,175.516 342.250 L 175.400 345.800 174.539 344.200 C 172.499 340.410,169.525 339.117,162.800 339.097 C 151.927 339.064,147.475 343.437,147.425 354.200 L 147.400 359.400 148.951 362.506 C 151.163 366.938,153.676 369.139,159.132 371.425 C 164.133 373.520,171.596 372.275,174.395 368.879 L 175.600 367.418 175.600 369.095 C 175.600 373.431,173.068 374.800,165.046 374.800 C 150.253 374.800,140.961 365.640,142.788 352.858 C 144.525 340.701,156.655 334.542,172.391 337.825 M199.483 337.700 C 199.693 337.975,200.624 340.090,201.553 342.400 C 202.481 344.710,203.390 346.960,203.573 347.400 C 203.755 347.840,204.220 349.010,204.606 350.000 C 204.992 350.990,205.733 352.750,206.254 353.911 C 206.774 355.072,207.200 356.192,207.200 356.400 C 207.200 356.608,207.636 357.728,208.168 358.889 C 208.701 360.050,209.988 363.050,211.029 365.555 C 212.952 370.184,214.546 372.529,216.125 373.051 C 217.385 373.469,215.766 373.908,212.800 373.955 C 209.552 374.005,208.800 373.714,208.800 372.403 C 208.800 371.796,208.335 370.242,207.766 368.950 C 207.197 367.657,206.467 365.970,206.143 365.200 C 205.818 364.430,205.248 363.170,204.876 362.400 L 204.200 361.000 198.357 360.890 C 191.872 360.767,191.915 360.752,190.894 363.546 C 188.398 370.380,188.066 371.906,188.897 372.737 C 190.010 373.850,186.992 374.345,183.400 373.639 C 181.800 373.325,181.800 373.325,182.860 372.888 C 184.800 372.087,185.615 370.301,193.222 350.200 C 194.137 347.780,195.042 345.440,195.232 345.000 C 195.422 344.560,195.951 343.210,196.407 342.000 C 198.183 337.288,198.660 336.621,199.483 337.700 M251.100 337.802 C 251.625 337.983,251.790 340.640,251.348 341.792 C 251.132 342.354,250.925 342.286,249.923 341.325 C 248.546 340.005,239.485 339.308,238.751 340.465 C 238.358 341.085,238.282 367.156,238.663 370.336 C 238.875 372.098,239.095 372.551,239.920 372.927 L 240.920 373.383 239.960 373.652 C 238.735 373.995,233.461 374.075,232.648 373.763 C 232.120 373.561,232.159 373.353,232.915 372.330 C 233.815 371.113,234.563 345.325,233.814 341.332 L 233.564 340.000 228.460 340.000 C 223.643 340.000,223.279 340.056,222.000 341.000 C 220.281 342.268,220.345 342.301,220.650 340.300 C 221.130 337.158,219.864 337.387,236.060 337.515 C 244.057 337.578,250.825 337.707,251.100 337.802 M308.831 337.967 C 317.670 340.926,322.167 347.634,321.458 356.800 C 319.666 379.972,284.936 380.867,282.635 357.800 C 281.272 344.134,295.370 333.460,308.831 337.967 M94.909 339.400 C 94.859 340.280,94.709 341.450,94.576 342.000 L 94.333 343.000 93.811 341.760 C 93.149 340.187,92.940 340.116,87.923 339.780 C 82.222 339.399,82.400 339.173,82.400 346.800 C 82.400 354.494,82.150 354.201,88.437 353.863 C 91.004 353.725,93.395 353.500,93.752 353.363 C 94.446 353.097,94.665 355.170,94.148 357.100 C 93.890 358.063,92.800 358.358,92.800 357.464 C 92.800 356.562,90.794 355.948,87.052 355.705 C 82.264 355.395,82.400 355.168,82.400 363.495 C 82.400 372.078,82.341 372.000,88.829 372.000 L 93.294 372.000 94.847 370.447 L 96.400 368.894 96.400 370.021 C 96.400 371.388,95.724 373.267,95.075 373.703 C 94.560 374.049,79.462 374.048,77.243 373.702 L 75.886 373.490 76.843 372.768 L 77.800 372.046 77.800 356.056 L 77.800 340.065 76.871 339.076 C 75.557 337.677,75.768 337.646,86.000 337.728 L 95.000 337.800 94.909 339.400 M270.216 338.027 C 270.361 338.261,270.194 338.666,269.844 338.927 C 267.698 340.525,267.825 371.060,269.985 372.853 C 270.752 373.489,270.740 373.512,269.536 373.753 C 266.418 374.376,261.068 373.782,262.459 372.966 C 264.090 372.010,264.195 371.107,264.328 357.000 C 264.471 341.698,264.379 340.488,262.965 339.074 C 262.257 338.366,262.118 338.017,262.484 337.870 C 263.491 337.466,269.951 337.597,270.216 338.027 M339.223 340.300 C 360.297 362.495,363.755 366.000,364.577 366.000 C 366.291 366.000,365.177 340.384,363.401 338.968 C 362.022 337.869,362.612 337.600,366.409 337.600 C 369.388 337.600,369.983 337.930,368.851 338.954 C 368.176 339.565,368.100 340.875,367.832 356.492 C 367.672 365.775,367.465 373.495,367.371 373.648 C 366.707 374.721,358.780 367.274,344.572 352.228 C 340.254 347.656,338.403 345.951,338.015 346.191 C 337.571 346.465,337.521 348.544,337.734 357.762 C 338.004 369.479,338.304 371.758,339.716 372.863 C 340.545 373.512,340.522 373.533,338.682 373.809 C 335.705 374.255,332.729 373.694,333.900 372.907 L 334.800 372.302 334.805 355.851 C 334.812 335.008,334.671 335.506,339.223 340.300 M296.457 339.574 C 287.071 343.064,284.332 357.008,291.089 366.906 C 296.699 375.124,310.503 374.467,314.781 365.778 C 321.940 351.235,310.210 334.460,296.457 339.574 M306.673 340.462 C 309.252 341.427,312.654 344.495,313.716 346.815 C 315.481 350.670,315.600 351.273,315.600 356.364 C 315.600 367.299,310.564 372.798,301.466 371.800 C 295.460 371.141,291.465 367.654,289.397 361.266 C 284.949 347.526,294.574 335.935,306.673 340.462 M197.502 345.900 C 197.160 346.285,196.699 347.230,196.478 348.000 C 196.258 348.770,195.412 351.247,194.598 353.505 C 192.632 358.958,192.519 358.800,198.387 358.800 C 203.817 358.800,203.633 358.948,202.381 355.594 C 201.930 354.387,201.293 352.680,200.965 351.800 C 200.637 350.920,199.980 349.075,199.506 347.700 C 198.567 344.980,198.429 344.856,197.502 345.900 M198.800 347.715 C 198.800 348.232,200.647 353.420,201.197 354.451 C 201.389 354.809,201.668 355.754,201.817 356.551 L 202.089 358.000 198.045 358.000 C 195.820 358.000,194.000 357.862,194.000 357.694 C 194.000 357.526,194.376 356.401,194.835 355.194 C 195.294 353.987,195.821 352.460,196.007 351.800 C 197.147 347.758,198.800 345.340,198.800 347.715 " stroke="none" fill="#8a8b9d" fill-rule="evenodd"></path></g></svg>