<svg id="svg" xmlns="http://www.w3.org/2000/svg" xmlns:xlink="http://www.w3.org/1999/xlink" width="400" height="400" viewBox="0, 0, 400,400" version="1.1"><g id="svgg"><path id="path0" d="M162.578 23.421 C 162.801 24.145,163.271 28.645,163.622 33.421 L 164.260 42.105 160.807 42.105 C 153.102 42.105,146.214 45.909,144.125 51.316 C 143.067 54.054,142.023 54.143,129.446 52.565 C 124.540 51.949,118.934 51.744,116.987 52.108 L 113.448 52.771 113.879 59.550 C 114.409 67.871,119.524 73.997,130.291 79.203 C 145.736 86.671,150.760 96.554,151.568 121.053 L 152.105 137.368 154.072 133.759 C 161.665 119.822,182.444 106.065,200.225 103.204 C 208.163 101.927,208.869 101.112,211.112 90.641 C 212.056 86.236,213.330 81.155,213.943 79.350 C 215.030 76.154,214.544 75.383,195.209 49.653 C 184.292 35.124,175.196 23.400,174.996 23.600 C 174.796 23.801,175.183 27.124,175.855 30.987 C 177.516 40.521,176.892 40.492,169.806 30.698 C 164.092 22.800,161.616 20.307,162.578 23.421 M257.875 44.761 C 257.110 45.682,255.717 46.101,254.597 45.745 C 250.723 44.515,225.606 66.608,220.851 75.428 C 217.873 80.951,212.258 100.650,213.219 102.204 C 213.543 102.729,215.178 103.158,216.852 103.158 C 232.940 103.158,255.553 116.447,265.292 131.624 C 270.136 139.172,270.411 136.819,266.149 124.309 C 261.797 111.532,263.597 106.364,273.673 102.715 C 277.410 101.362,280.955 99.389,281.550 98.330 C 282.145 97.271,283.180 95.802,283.851 95.065 C 286.926 91.689,286.657 85.471,283.250 81.169 C 281.462 78.912,280.000 76.286,280.000 75.333 C 280.000 69.403,269.992 58.482,263.429 57.251 C 258.953 56.411,258.373 54.992,260.461 49.994 C 263.099 43.680,261.484 40.412,257.875 44.761 M158.184 50.958 C 160.574 52.771,157.551 53.484,151.053 52.639 C 147.217 52.141,147.029 51.978,148.947 50.815 C 151.723 49.131,155.861 49.195,158.184 50.958 M266.558 72.161 C 265.807 73.503,265.351 73.626,264.748 72.649 C 264.290 71.908,264.555 70.964,265.361 70.466 C 267.278 69.281,267.776 69.986,266.558 72.161 M198.421 107.824 C 160.033 116.825,140.212 151.877,152.550 188.947 C 160.479 212.772,181.304 254.709,204.428 293.421 C 210.127 302.962,210.393 303.168,212.588 299.737 C 243.960 250.703,272.650 187.511,272.619 167.514 C 272.561 129.957,234.525 99.359,198.421 107.824 M221.660 134.176 C 241.374 140.030,252.783 165.252,243.818 183.158 C 231.877 207.004,202.946 212.452,185.020 194.229 C 158.513 167.285,185.301 123.378,221.660 134.176 M24.211 331.506 C 24.211 332.044,25.252 332.637,26.525 332.822 C 28.472 333.105,30.159 336.455,37.163 353.947 C 41.741 365.382,45.904 374.737,46.413 374.737 C 47.437 374.737,47.797 373.949,57.507 350.526 C 61.525 340.831,65.219 333.473,66.609 332.392 C 68.899 330.611,68.816 330.573,62.632 330.583 C 56.884 330.592,56.497 330.731,58.336 332.122 C 60.301 333.609,60.239 333.970,56.025 345.509 C 47.310 369.375,48.633 368.999,41.184 349.725 C 35.700 335.534,34.963 332.632,36.842 332.632 C 37.421 332.632,37.895 332.158,37.895 331.579 C 37.895 330.985,34.912 330.526,31.053 330.526 C 27.289 330.526,24.211 330.967,24.211 331.506 M74.737 337.826 C 74.737 338.319,75.447 338.995,76.316 339.328 C 78.584 340.198,78.648 369.623,76.386 371.884 C 75.077 373.194,76.131 373.487,84.382 374.110 C 94.894 374.904,96.842 374.204,96.842 369.637 L 96.842 366.900 95.166 369.293 C 93.761 371.299,92.696 371.635,88.587 371.369 L 83.684 371.053 83.375 363.421 L 83.066 355.789 86.721 355.789 C 88.731 355.789,91.086 356.500,91.955 357.368 C 94.204 359.618,94.737 359.350,94.737 355.966 C 94.737 352.996,94.715 352.986,88.947 353.465 L 83.158 353.945 83.158 346.972 L 83.158 340.000 87.928 340.000 C 91.420 340.000,92.879 340.473,93.375 341.765 C 93.981 343.345,94.136 343.317,94.847 341.502 C 96.412 337.508,95.954 337.298,85.263 337.113 C 79.474 337.012,74.737 337.333,74.737 337.826 M104.912 337.544 C 104.526 337.930,104.211 339.385,104.211 340.777 C 104.211 343.111,104.343 343.175,105.917 341.602 C 107.115 340.404,109.077 339.989,112.496 340.211 L 117.368 340.526 117.660 355.423 C 117.905 367.933,117.682 370.589,116.269 372.002 C 114.727 373.543,115.100 373.674,120.714 373.562 C 124.085 373.495,126.048 373.230,125.077 372.973 C 122.879 372.392,121.820 363.637,122.299 350.000 L 122.632 340.526 127.213 340.197 C 130.423 339.967,132.392 340.409,133.792 341.676 C 135.714 343.415,135.789 343.358,135.789 340.163 L 135.789 336.842 120.702 336.842 C 112.404 336.842,105.298 337.158,104.912 337.544 M154.336 337.870 C 141.272 342.044,138.022 362.500,149.187 370.277 C 159.257 377.291,175.789 376.330,175.789 368.730 L 175.789 366.032 173.608 368.805 C 169.044 374.607,156.090 371.960,150.213 364.026 C 145.612 357.814,147.199 345.387,153.085 341.530 C 159.494 337.330,171.697 338.803,173.973 344.051 C 175.181 346.836,175.185 346.833,175.556 342.789 C 175.761 340.560,175.655 338.462,175.319 338.126 C 174.257 337.064,157.500 336.859,154.336 337.870 M195.216 344.474 C 187.419 365.264,184.717 371.002,182.105 372.323 C 179.673 373.553,179.912 373.653,185.263 373.653 C 188.447 373.652,190.473 373.284,189.764 372.833 C 188.766 372.199,188.874 370.768,190.242 366.489 L 192.009 360.963 198.300 361.271 L 204.590 361.579 206.762 367.632 L 208.934 373.684 213.678 373.562 C 216.287 373.495,217.581 373.221,216.555 372.954 C 214.289 372.364,211.395 366.691,204.713 349.737 C 198.740 334.581,198.895 334.667,195.216 344.474 M220.639 338.507 C 219.235 342.165,219.823 343.644,221.925 341.742 C 223.138 340.644,225.669 340.000,228.767 340.000 L 233.684 340.000 233.684 355.737 C 233.684 369.614,233.467 371.601,231.842 372.547 C 230.453 373.356,231.553 373.598,236.316 373.530 C 239.789 373.481,241.803 373.223,240.789 372.959 C 239.135 372.526,238.947 370.819,238.947 356.239 L 238.947 340.000 243.338 340.000 C 245.947 340.000,248.510 340.707,249.654 341.742 C 251.480 343.395,251.579 343.314,251.579 340.163 L 251.579 336.842 236.428 336.842 C 223.584 336.842,221.181 337.096,220.639 338.507 M261.053 337.782 C 261.053 338.299,261.763 338.995,262.632 339.328 C 265.018 340.244,264.950 369.636,262.556 372.030 C 261.053 373.534,261.459 373.673,267.030 373.562 C 270.400 373.495,272.387 373.235,271.445 372.983 C 268.171 372.111,266.967 345.444,269.944 339.737 L 271.454 336.842 266.253 336.842 C 263.393 336.842,261.053 337.265,261.053 337.782 M292.964 338.888 C 287.038 341.578,282.921 347.877,282.391 355.063 C 280.731 377.584,313.963 382.443,321.014 360.711 C 326.176 344.801,309.138 331.545,292.964 338.888 M334.737 354.660 C 334.737 370.744,334.558 372.524,332.895 372.959 C 331.882 373.223,333.658 373.440,336.842 373.440 C 340.026 373.440,341.857 373.234,340.910 372.982 C 338.638 372.377,337.895 368.182,337.895 355.961 L 337.895 345.869 352.230 360.288 C 360.115 368.218,366.984 374.448,367.494 374.133 C 368.004 373.818,368.421 365.772,368.421 356.254 C 368.421 345.418,368.815 338.947,369.474 338.947 C 370.053 338.947,370.526 338.474,370.526 337.895 C 370.526 337.316,368.395 336.842,365.789 336.842 C 360.725 336.842,360.031 337.442,362.775 339.448 C 364.165 340.465,364.581 343.232,364.928 353.775 L 365.359 366.842 350.837 351.842 C 342.850 343.592,335.961 336.842,335.526 336.842 C 335.092 336.842,334.737 344.860,334.737 354.660 M309.032 340.932 C 318.694 346.825,318.579 366.411,308.855 371.026 C 295.988 377.132,283.277 361.846,289.107 347.277 C 292.192 339.565,301.782 336.511,309.032 340.932 M202.708 357.105 C 203.213 358.677,202.594 358.947,198.492 358.947 C 195.848 358.947,193.684 358.533,193.684 358.027 C 193.684 357.227,195.653 351.140,197.473 346.316 C 197.997 344.927,200.362 349.803,202.708 357.105 " stroke="none" fill="#000000" fill-rule="evenodd"></path></g></svg>