<svg xmlns="http://www.w3.org/2000/svg" xmlns:xlink="http://www.w3.org/1999/xlink" id="svg" version="1.1" viewBox="14.15 13.69 354.23 86.83"><g id="svgg"><path id="path0" d="M29.447 16.764 L 29.760 19.839 27.757 20.150 C 25.571 20.489,24.573 21.080,23.775 22.506 C 23.311 23.336,22.774 23.434,18.705 23.434 L 14.153 23.434 14.195 25.428 C 14.249 28.000,15.393 29.509,18.588 31.218 C 24.094 34.164,25.596 36.824,25.898 44.162 L 26.104 49.164 27.376 47.408 C 30.269 43.415,35.952 39.802,40.340 39.168 C 43.067 38.774,43.393 38.481,44.048 35.838 C 44.348 34.631,44.802 32.971,45.058 32.151 C 45.476 30.814,33.883 13.758,33.093 14.548 C 33.012 14.629,33.130 15.679,33.354 16.880 C 33.858 19.579,33.507 19.481,31.062 16.241 L 29.135 13.689 29.447 16.764 M59.140 20.922 C 58.968 21.200,58.445 21.326,57.978 21.204 C 55.424 20.536,47.236 29.314,45.892 34.160 C 45.426 35.841,44.918 37.614,44.765 38.098 C 44.534 38.825,44.720 38.979,45.824 38.979 C 50.658 38.979,57.487 42.855,60.868 47.517 C 62.321 49.520,62.546 48.946,61.485 45.940 C 59.966 41.635,60.732 39.569,64.158 38.727 C 66.728 38.095,68.296 34.553,66.884 32.570 C 66.373 31.853,65.821 30.733,65.658 30.082 C 65.201 28.262,62.801 25.638,60.994 24.985 C 59.403 24.410,59.376 24.356,59.668 22.408 C 59.960 20.462,59.764 19.912,59.140 20.922 M27.570 22.554 C 28.745 23.005,27.925 23.666,26.191 23.666 C 24.621 23.666,24.035 23.041,25.174 22.581 C 26.012 22.243,26.737 22.235,27.570 22.554 M42.227 40.259 C 32.786 41.150,25.026 49.600,24.972 59.049 C 24.940 64.531,29.644 75.816,38.560 91.647 C 43.961 101.239,43.886 101.138,44.757 99.973 C 50.267 92.599,62.108 67.760,63.103 61.487 C 64.932 49.950,54.283 39.120,42.227 40.259 M84.919 42.947 C 84.919 43.088,85.646 43.506,86.534 43.878 C 88.754 44.805,88.716 44.730,95.601 61.949 C 102.939 80.302,102.896 80.237,104.874 75.842 C 105.383 74.709,106.198 72.894,106.685 71.810 C 107.171 70.725,108.968 66.392,110.676 62.181 C 112.385 57.970,114.070 53.898,114.422 53.132 C 114.773 52.367,115.653 50.278,116.378 48.492 C 117.329 46.147,118.101 44.985,119.154 44.316 C 121.368 42.908,121.011 42.691,116.473 42.691 C 112.539 42.691,111.142 43.190,113.225 43.852 C 113.735 44.014,114.152 44.497,114.151 44.927 C 114.148 45.983,108.690 61.096,106.496 66.125 C 106.162 66.891,105.551 68.337,105.138 69.340 C 104.074 71.921,103.970 71.735,98.787 57.934 C 93.684 44.345,93.796 44.801,95.244 43.593 C 96.276 42.732,96.226 42.722,90.603 42.707 C 87.477 42.698,84.919 42.806,84.919 42.947 M194.021 47.825 C 179.831 50.355,176.989 70.403,189.954 76.517 C 196.573 79.638,207.286 79.508,208.753 76.289 C 209.404 74.859,209.447 71.926,208.817 71.926 C 208.561 71.926,208.353 72.217,208.353 72.574 C 208.353 75.453,200.768 77.204,195.342 75.578 C 184.164 72.229,182.427 54.040,192.910 50.117 C 198.652 47.969,205.449 49.423,207.553 53.249 C 208.985 55.853,209.403 55.341,209.190 51.241 C 209.050 48.550,209.034 48.523,207.425 48.182 C 204.570 47.576,196.604 47.364,194.021 47.825 M309.012 47.773 C 299.693 49.472,294.060 59.749,297.463 68.844 C 303.177 84.116,327.324 80.666,328.846 64.359 C 329.891 53.177,320.847 45.615,309.012 47.773 M126.218 48.249 C 126.218 48.510,126.412 48.724,126.649 48.724 C 128.391 48.724,128.538 49.850,128.538 63.116 C 128.538 75.866,128.524 76.059,127.530 76.756 C 126.120 77.743,126.638 77.840,135.035 78.161 C 142.513 78.448,142.903 78.383,143.782 76.713 C 145.158 74.099,144.332 72.676,142.620 74.710 C 141.141 76.468,134.916 76.838,133.483 75.253 C 132.699 74.387,132.324 65.595,132.996 63.843 C 133.536 62.436,140.565 63.096,140.956 64.591 C 141.387 66.238,142.227 65.128,142.368 62.727 L 142.508 60.329 141.293 60.791 C 140.625 61.045,138.530 61.253,136.638 61.253 C 132.530 61.253,132.606 61.382,132.811 54.756 L 132.947 50.348 136.727 50.214 C 140.340 50.086,140.551 50.135,141.477 51.313 C 142.553 52.681,142.825 52.390,143.033 49.652 L 143.155 48.028 134.687 47.901 C 129.143 47.819,126.218 47.939,126.218 48.249 M150.455 49.647 C 149.879 51.917,150.387 52.374,152.039 51.074 C 153.645 49.811,160.738 49.637,161.203 50.850 C 161.358 51.254,161.485 56.901,161.485 63.400 L 161.485 75.216 160.374 76.327 C 159.763 76.938,159.380 77.555,159.523 77.698 C 159.985 78.160,167.917 77.974,168.213 77.494 C 168.376 77.231,167.989 77.030,167.322 77.030 C 165.659 77.030,165.615 76.618,165.763 62.645 L 165.893 50.348 169.432 50.214 C 172.648 50.091,173.099 50.187,174.371 51.258 C 176.267 52.853,176.407 52.776,176.244 50.232 L 176.102 48.028 163.515 47.904 L 150.929 47.781 150.455 49.647 M226.434 49.922 C 225.932 51.092,225.522 52.243,225.522 52.481 C 225.522 52.718,225.325 53.275,225.084 53.719 C 224.843 54.162,222.826 59.203,220.602 64.922 C 216.519 75.424,215.629 77.030,213.894 77.030 C 213.368 77.030,213.067 77.239,213.225 77.494 C 213.383 77.749,215.053 77.958,216.937 77.958 C 218.821 77.958,220.492 77.749,220.650 77.494 C 220.807 77.239,220.715 77.030,220.445 77.030 C 219.641 77.030,219.883 74.606,221.004 71.426 C 222.542 67.064,222.190 67.285,227.587 67.285 L 232.382 67.285 233.209 69.258 C 234.833 73.132,235.811 75.884,235.886 76.798 C 235.974 77.859,242.360 78.476,243.319 77.516 C 243.658 77.178,243.520 77.030,242.865 77.030 C 240.781 77.030,239.784 75.179,233.865 60.325 C 228.173 46.041,228.126 45.975,226.434 49.922 M246.221 48.181 C 246.085 48.400,245.827 49.495,245.648 50.614 L 245.323 52.647 246.848 51.364 C 248.290 50.150,248.587 50.089,252.376 50.215 L 256.381 50.348 256.504 62.777 C 256.629 75.344,256.445 77.030,254.945 77.030 C 254.556 77.030,254.367 77.239,254.524 77.494 C 254.682 77.749,256.666 77.958,258.933 77.958 C 261.200 77.958,263.183 77.749,263.341 77.494 C 263.499 77.239,263.223 77.030,262.729 77.030 C 260.866 77.030,260.769 76.284,260.897 63.052 L 261.021 50.348 264.560 50.214 C 267.775 50.091,268.226 50.187,269.499 51.258 C 271.394 52.853,271.534 52.776,271.371 50.232 L 271.230 48.028 258.849 47.904 C 252.039 47.836,246.357 47.961,246.221 48.181 M279.350 48.237 C 279.350 48.479,279.633 48.845,279.979 49.049 C 282.591 50.592,282.458 77.030,279.838 77.030 C 279.570 77.030,279.350 77.239,279.350 77.494 C 279.350 78.088,288.013 78.118,288.380 77.526 C 288.527 77.288,288.071 77.027,287.367 76.946 C 285.589 76.741,285.313 74.400,285.481 60.953 C 285.599 51.492,285.712 50.105,286.427 49.315 C 287.705 47.905,287.481 47.796,283.295 47.796 C 281.112 47.796,279.350 47.993,279.350 48.237 M339.671 59.745 C 339.666 73.835,339.432 76.595,338.211 76.915 C 336.165 77.450,337.657 77.958,341.272 77.958 C 344.977 77.958,347.171 77.264,344.470 76.946 C 343.530 76.835,343.120 76.451,342.830 75.406 C 342.320 73.574,341.747 55.220,342.199 55.220 C 342.392 55.220,347.563 60.336,353.690 66.589 C 364.382 77.500,366.123 78.915,366.772 77.224 C 366.927 76.821,367.053 70.477,367.053 63.128 C 367.053 51.816,367.160 49.677,367.749 49.188 C 369.079 48.084,368.424 47.796,364.617 47.808 L 360.789 47.821 362.409 49.164 L 364.030 50.508 364.201 60.753 C 364.314 67.576,364.212 70.998,363.894 70.998 C 363.446 70.998,360.592 68.130,348.236 55.268 C 345.442 52.360,342.676 49.488,342.090 48.888 C 339.744 46.483,339.676 46.792,339.671 59.745 M47.210 48.537 C 51.380 49.371,55.313 54.612,55.313 59.335 C 55.313 71.430,39.027 75.127,33.890 64.198 C 29.848 55.600,37.506 46.596,47.210 48.537 M317.184 50.172 C 325.211 53.945,327.162 68.262,320.452 74.154 C 314.320 79.537,303.984 75.808,301.639 67.368 C 298.330 55.452,307.302 45.527,317.184 50.172 M229.989 60.896 C 231.617 65.514,231.661 65.429,227.638 65.429 C 223.319 65.429,223.312 65.415,225.087 60.216 C 227.404 53.430,227.355 53.423,229.989 60.896 " stroke="none" fill="#000000" fill-rule="evenodd"/></g></svg>